<svg xmlns="http://www.w3.org/2000/svg" xmlns:xlink="http://www.w3.org/1999/xlink" width="68" height="68" viewBox="0 0 68 68">
  <defs>
    <filter id="Icon_awesome-arrow-alt-circle-up" x="0" y="0" width="68" height="68" filterUnits="userSpaceOnUse">
      <feOffset dy="3" input="SourceAlpha"/>
      <feGaussianBlur stdDeviation="3" result="blur"/>
      <feFlood flood-opacity="0.161"/>
      <feComposite operator="in" in2="blur"/>
      <feComposite in="SourceGraphic"/>
    </filter>
  </defs>
  <g id="Floating_BTN" data-name="Floating BTN" transform="translate(-1867 -225)">
    <circle id="Ellipse_8" data-name="Ellipse 8" cx="21.563" cy="21.563" r="21.563" transform="translate(1880 234)"/>
    <g transform="matrix(1, 0, 0, 1, 1867, 225)" filter="url(#Icon_awesome-arrow-alt-circle-up)">
      <path id="Icon_awesome-arrow-alt-circle-up-2" data-name="Icon awesome-arrow-alt-circle-up" d="M.563,25.563a25,25,0,1,1,25,25A25,25,0,0,1,.563,25.563ZM30,37.256V25.563h7.147A1.211,1.211,0,0,0,38,23.5L26.419,11.974a1.2,1.2,0,0,0-1.7,0L13.123,23.5a1.21,1.21,0,0,0,.857,2.067h7.147V37.256a1.213,1.213,0,0,0,1.21,1.21h6.452A1.213,1.213,0,0,0,30,37.256Z" transform="translate(8.44 5.44)" fill="#fedd00"/>
    </g>
  </g>
</svg>
