<svg width="175" height="46" viewBox="0 0 175 46" fill="none" xmlns="http://www.w3.org/2000/svg">
<g clip-path="url(#clip0)">
<path d="M24.9577 45.9999H9.13744C8.7604 45.9999 8.39875 45.8486 8.13329 45.581C7.86782 45.3134 7.71777 44.9488 7.71777 44.5648L7.73701 29.004C7.73701 28.2127 8.37567 27.5728 9.16052 27.5728C9.16052 27.5728 9.16053 27.5728 9.16437 27.5728C9.94923 27.5728 10.584 28.2166 10.584 29.0078L10.5648 43.1336H21.5297L17.7478 39.321C17.1938 38.7625 17.1938 37.8549 17.7478 37.2925L27.2776 27.6852C27.8317 27.1267 28.7319 27.1267 29.2898 27.6852C29.8438 28.2438 29.8438 29.1514 29.2898 29.7137L20.7602 38.3048L25.9657 43.5525C26.3735 43.9637 26.4928 44.5804 26.2735 45.1156C26.0542 45.6508 25.5348 45.9999 24.9577 45.9999Z" fill="#FCDC00"/>
<path d="M17.1745 30.0008C16.809 30.0008 16.4474 29.8612 16.1704 29.5819L7.63312 20.9753L2.42767 26.2231C2.01985 26.6342 1.40813 26.7544 0.877193 26.5333C0.34626 26.3123 0 25.7887 0 25.2107V9.26201C0 8.88191 0.150046 8.51732 0.415513 8.2497C0.680979 7.98208 1.04263 7.83081 1.41967 7.83081C1.41967 7.83081 1.41967 7.83081 1.42352 7.83081L16.859 7.8502C17.6439 7.8502 18.2787 8.49405 18.2787 9.28528C18.2787 10.0765 17.64 10.7165 16.8552 10.7165C16.8552 10.7165 16.8552 10.7165 16.8513 10.7165L2.84318 10.6971V21.751L6.62512 17.9384C6.89058 17.6708 7.25223 17.5195 7.62927 17.5195C8.00631 17.5195 8.36796 17.6708 8.63343 17.9384L18.1748 27.5573C18.7288 28.1158 18.7288 29.0234 18.1748 29.5858C17.9017 29.8612 17.54 30.0008 17.1745 30.0008Z" fill="#FCDC00"/>
<path d="M17.2361 18.9973C16.8706 18.9973 16.5089 18.8577 16.2319 18.5784C15.6779 18.0199 15.6779 17.1123 16.2319 16.5499L25.0192 7.69123L19.8099 2.44739C19.4021 2.03626 19.2829 1.41956 19.5022 0.884317C19.7215 0.349072 20.2408 0 20.8141 0H36.6343C37.0114 0 37.373 0.151265 37.6385 0.418887C37.904 0.686509 38.054 1.0511 38.054 1.43508L38.0348 16.996C38.0348 17.7872 37.3961 18.4271 36.6113 18.4271C36.6113 18.4271 36.6113 18.4271 36.6074 18.4271C35.8226 18.4271 35.1877 17.7833 35.1877 16.9921L35.207 2.86627H24.2421L28.024 6.67892C28.578 7.23744 28.578 8.14503 28.024 8.70742L18.2402 18.5784C17.9632 18.8577 17.5977 18.9973 17.2361 18.9973Z" fill="#FCDC00"/>
<path d="M44.1596 38.2195C44.1596 38.2195 44.1557 38.2195 44.1596 38.2195L28.7241 38.2002C27.9392 38.2002 27.3044 37.5563 27.3044 36.7651C27.3044 35.9738 27.9431 35.3339 28.7279 35.3339C28.7279 35.3339 28.7279 35.3339 28.7318 35.3339L42.7438 35.3533V24.2993L38.9618 28.112C38.4078 28.6705 37.5076 28.6705 36.9497 28.112L27.4468 18.5319C26.8927 17.9733 26.8927 17.0658 27.4468 16.5034C28.0008 15.9448 28.9011 15.9448 29.4589 16.5034L37.9577 25.0711L43.1631 19.8234C43.571 19.4123 44.1788 19.2882 44.7136 19.5131C45.2445 19.7342 45.5908 20.2578 45.5908 20.8357V36.7845C45.5908 37.1646 45.4408 37.5292 45.1753 37.7968C44.8983 38.0683 44.5366 38.2195 44.1596 38.2195Z" fill="#FCDC00"/>
<path d="M61.4504 7.13265C62.1198 5.90702 63.0586 4.95289 64.2589 4.27026C65.4593 3.58763 66.8213 3.24243 68.341 3.24243C70.2031 3.24243 71.7997 3.73889 73.1271 4.73181C74.4544 5.72472 75.3393 7.07835 75.7894 8.78881H71.5843C71.2726 8.12945 70.8263 7.62523 70.2531 7.28004C69.6798 6.93484 69.0258 6.76031 68.2948 6.76031C67.1175 6.76031 66.1634 7.17531 65.4324 8.00145C64.7014 8.82759 64.3359 9.93299 64.3359 11.3176C64.3359 12.7023 64.7014 13.8038 65.4324 14.6338C66.1634 15.46 67.1175 15.875 68.2948 15.875C69.0258 15.875 69.676 15.7004 70.2531 15.3552C70.8263 15.0101 71.2688 14.5058 71.5843 13.8465H75.7894C75.3431 15.5608 74.4544 16.9106 73.1271 17.8918C71.7997 18.877 70.2031 19.3696 68.341 19.3696C66.8213 19.3696 65.4593 19.0283 64.2589 18.3418C63.0586 17.6591 62.1237 16.7089 61.4504 15.491C60.7771 14.2731 60.4424 12.8846 60.4424 11.3215C60.4424 9.75069 60.7771 8.35828 61.4504 7.13265Z" fill="#333333"/>
<path d="M89.8316 12.4968C90.3818 13.2105 90.6588 14.025 90.6588 14.9442C90.6588 16.2668 90.2009 17.314 89.2814 18.0897C88.3657 18.8654 87.0846 19.2494 85.4456 19.2494H78.1318V3.4248H85.1994C86.796 3.4248 88.0426 3.79327 88.9467 4.5302C89.847 5.26713 90.301 6.26781 90.301 7.52835C90.301 8.45921 90.0586 9.23492 89.5738 9.85162C89.089 10.4683 88.4427 10.895 87.6386 11.1354C88.5504 11.3294 89.2776 11.7832 89.8316 12.4968ZM81.9599 9.82835H84.4645C85.0917 9.82835 85.5726 9.68872 85.9073 9.40946C86.242 9.1302 86.4113 8.72295 86.4113 8.17995C86.4113 7.63695 86.242 7.22582 85.9073 6.9388C85.5726 6.65179 85.0917 6.51216 84.4645 6.51216H81.9599V9.82835ZM86.2651 15.7005C86.6152 15.4057 86.7922 14.983 86.7922 14.4283C86.7922 13.8737 86.6114 13.4354 86.2459 13.1213C85.8804 12.8071 85.3764 12.6481 84.7377 12.6481H81.9638V16.1427H84.7839C85.4187 16.1388 85.9111 15.9914 86.2651 15.7005Z" fill="#333333"/>
<path d="M96.6963 3.4248V19.2533H92.8721V3.4248H96.6963Z" fill="#333333"/>
<path d="M110.812 11.0346C110.392 11.7948 109.754 12.4076 108.888 12.873C108.022 13.3385 106.949 13.5712 105.668 13.5712H103.298V19.2533H99.4736V3.4248H105.668C106.922 3.4248 107.98 3.64201 108.842 4.08029C109.708 4.51469 110.354 5.11587 110.789 5.88383C111.22 6.65179 111.439 7.52835 111.439 8.52126C111.435 9.43661 111.227 10.2744 110.812 11.0346ZM107.007 9.98349C107.365 9.6383 107.545 9.14959 107.545 8.51739C107.545 7.88518 107.365 7.39648 107.007 7.05128C106.649 6.70609 106.103 6.53155 105.375 6.53155H103.294V10.4993H105.375C106.106 10.5032 106.649 10.3287 107.007 9.98349Z" fill="#333333"/>
<path d="M64.917 38.8207H69.9263V41.7956H61.0928V25.9709H64.917V38.8207Z" fill="#333333"/>
<path d="M75.127 40.9189C73.8958 40.2285 72.9186 39.2627 72.1953 38.0216C71.472 36.7805 71.1104 35.388 71.1104 33.8405C71.1104 32.2929 71.472 30.9005 72.1953 29.671C72.9186 28.4376 73.8958 27.4757 75.127 26.7853C76.3581 26.0949 77.7085 25.7498 79.1859 25.7498C80.6633 25.7498 82.0137 26.0949 83.2449 26.7853C84.476 27.4757 85.4455 28.4376 86.1534 29.671C86.8614 30.9044 87.2153 32.2929 87.2153 33.8405C87.2153 35.388 86.8575 36.7843 86.1419 38.0216C85.4263 39.2627 84.4568 40.2285 83.2333 40.9189C82.0099 41.6093 80.6594 41.9545 79.1859 41.9545C77.7124 41.9545 76.3543 41.6093 75.127 40.9189ZM82.1945 37.1761C82.9486 36.3344 83.3257 35.2213 83.3257 33.8405C83.3257 32.4442 82.9486 31.3272 82.1945 30.4933C81.4405 29.6594 80.4401 29.2405 79.1859 29.2405C77.9201 29.2405 76.9083 29.6555 76.1542 30.4816C75.4001 31.3078 75.0231 32.4287 75.0231 33.8405C75.0231 35.2368 75.4001 36.3538 76.1542 37.1877C76.9083 38.0216 77.9163 38.4405 79.1859 38.4405C80.4363 38.4405 81.4405 38.0177 82.1945 37.1761Z" fill="#333333"/>
<path d="M99.7621 30.9743C99.4774 30.4468 99.0735 30.0473 98.5425 29.768C98.0116 29.4888 97.3922 29.3491 96.6766 29.3491C95.4377 29.3491 94.449 29.7603 93.7026 30.5787C92.9562 31.397 92.583 32.4908 92.583 33.8599C92.583 35.3183 92.9754 36.4586 93.7565 37.277C94.5375 38.0953 95.6147 38.5065 96.9882 38.5065C97.927 38.5065 98.7234 38.266 99.3697 37.7851C100.02 37.3041 100.493 36.6137 100.789 35.71H95.9379V32.8709H104.256V36.4547C103.971 37.4166 103.49 38.3125 102.813 39.1387C102.136 39.9648 101.274 40.6358 100.232 41.1439C99.1889 41.6559 98.0078 41.9119 96.6997 41.9119C95.1492 41.9119 93.7641 41.5706 92.5522 40.8841C91.3365 40.2014 90.39 39.2512 89.7129 38.0333C89.0358 36.8154 88.6934 35.4269 88.6934 33.8638C88.6934 32.3007 89.0319 30.9083 89.7129 29.6827C90.39 28.4571 91.3326 27.5029 92.5407 26.8203C93.7488 26.1377 95.1261 25.7925 96.6766 25.7925C98.5541 25.7925 100.139 26.2502 101.428 27.1694C102.717 28.0847 103.571 29.3569 103.99 30.9781H99.7621V30.9743Z" fill="#333333"/>
<path d="M110.208 25.9709V41.7994H106.384V25.9709H110.208Z" fill="#333333"/>
<path d="M115.574 41.3921C114.667 41.0158 113.939 40.4612 113.393 39.7243C112.847 38.9873 112.562 38.0991 112.531 37.0636H116.602C116.659 37.6492 116.863 38.0991 117.206 38.4055C117.548 38.712 117.994 38.8671 118.548 38.8671C119.114 38.8671 119.564 38.7352 119.891 38.4715C120.218 38.2077 120.384 37.8432 120.384 37.3777C120.384 36.986 120.253 36.6641 119.991 36.4081C119.73 36.1521 119.41 35.9426 119.029 35.7759C118.649 35.6091 118.11 35.4229 117.41 35.2135C116.394 34.8993 115.567 34.5813 114.928 34.2671C114.286 33.9529 113.735 33.4875 113.274 32.8708C112.812 32.2541 112.581 31.4512 112.581 30.4583C112.581 28.9845 113.112 27.8325 114.17 26.9986C115.228 26.1647 116.609 25.7458 118.306 25.7458C120.037 25.7458 121.43 26.1647 122.488 26.9986C123.546 27.8325 124.112 28.9922 124.189 30.4816H120.053C120.022 29.9696 119.837 29.5701 119.495 29.2754C119.153 28.9806 118.71 28.8371 118.175 28.8371C117.714 28.8371 117.34 28.9612 117.056 29.2094C116.771 29.4577 116.633 29.8145 116.633 30.2799C116.633 30.7919 116.871 31.1914 117.348 31.4745C117.825 31.7615 118.572 32.0679 119.583 32.3976C120.595 32.7428 121.422 33.0725 122.053 33.3905C122.688 33.7047 123.235 34.1663 123.696 34.7674C124.158 35.3686 124.389 36.1443 124.389 37.0907C124.389 37.9944 124.162 38.8128 123.708 39.5497C123.254 40.2867 122.592 40.8723 121.726 41.3067C120.861 41.7411 119.841 41.9622 118.664 41.9622C117.514 41.9583 116.482 41.7683 115.574 41.3921Z" fill="#333333"/>
<path d="M138.028 25.9709V29.0583H133.869V41.7994H130.045V29.0583H125.886V25.9709H138.028Z" fill="#333333"/>
<path d="M143.775 25.9709V41.7994H139.951V25.9709H143.775Z" fill="#333333"/>
<path d="M146.908 29.679C147.578 28.4534 148.517 27.4993 149.717 26.8166C150.917 26.134 152.279 25.7888 153.799 25.7888C155.661 25.7888 157.258 26.2853 158.585 27.2782C159.912 28.2711 160.797 29.6247 161.247 31.3352H157.042C156.731 30.6758 156.284 30.1716 155.711 29.8264C155.138 29.4812 154.484 29.3067 153.753 29.3067C152.576 29.3067 151.621 29.7217 150.89 30.5478C150.159 31.374 149.794 32.4794 149.794 33.864C149.794 35.2487 150.159 36.3502 150.89 37.1802C151.621 38.0064 152.576 38.4214 153.753 38.4214C154.484 38.4214 155.134 38.2468 155.711 37.9016C156.284 37.5564 156.727 37.0522 157.042 36.3929H161.247C160.801 38.1072 159.912 39.4569 158.585 40.4382C157.258 41.4234 155.661 41.916 153.799 41.916C152.279 41.916 150.917 41.5746 149.717 40.8881C148.517 40.2055 147.582 39.2553 146.908 38.0374C146.235 36.8195 145.9 35.431 145.9 33.8679C145.904 32.2971 146.239 30.9047 146.908 29.679Z" fill="#333333"/>
<path d="M166.187 41.3921C165.279 41.0158 164.552 40.4612 164.005 39.7243C163.459 38.9873 163.174 38.0991 163.144 37.0636H167.214C167.272 37.6492 167.476 38.0991 167.818 38.4055C168.16 38.712 168.607 38.8671 169.161 38.8671C169.726 38.8671 170.176 38.7352 170.504 38.4715C170.831 38.2077 170.996 37.8432 170.996 37.3777C170.996 36.986 170.865 36.6641 170.604 36.4081C170.342 36.1521 170.023 35.9426 169.642 35.7759C169.261 35.6091 168.722 35.4229 168.022 35.2135C167.006 34.8993 166.179 34.5813 165.54 34.2671C164.898 33.9529 164.348 33.4875 163.886 32.8708C163.424 32.2541 163.194 31.4512 163.194 30.4583C163.194 28.9845 163.724 27.8325 164.783 26.9986C165.841 26.1647 167.222 25.7458 168.918 25.7458C170.65 25.7458 172.042 26.1647 173.1 26.9986C174.158 27.8325 174.724 28.9922 174.801 30.4816H170.665C170.634 29.9696 170.45 29.5701 170.107 29.2754C169.765 28.9806 169.322 28.8371 168.788 28.8371C168.326 28.8371 167.953 28.9612 167.668 29.2094C167.383 29.4577 167.245 29.8145 167.245 30.2799C167.245 30.7919 167.483 31.1914 167.96 31.4745C168.437 31.7615 169.184 32.0679 170.196 32.3976C171.208 32.7428 172.035 33.0725 172.666 33.3905C173.301 33.7047 173.847 34.1663 174.309 34.7674C174.77 35.3686 175.001 36.1443 175.001 37.0907C175.001 37.9944 174.774 38.8128 174.32 39.5497C173.866 40.2867 173.204 40.8723 172.339 41.3067C171.473 41.7411 170.453 41.9622 169.276 41.9622C168.126 41.9583 167.099 41.7683 166.187 41.3921Z" fill="#333333"/>
</g>
<defs>
<clipPath id="clip0">
<rect width="175" height="46" fill="white"/>
</clipPath>
</defs>
</svg>
