<svg xmlns="http://www.w3.org/2000/svg" width="80" height="80.092" viewBox="0 0 80 80.092">
  <g id="business" transform="translate(577.967 -154.509)">
    <path id="Path_183" data-name="Path 183" d="M-526.659,218.08c.333.843.613,1.561.9,2.275.605,1.5,1.234,2.99,1.811,4.5a.941.941,0,0,0,1.056.727c1.3-.044,2.6-.054,3.893.017a4.467,4.467,0,0,1,4.238,4.144,4.5,4.5,0,0,1-3.508,4.709,6.1,6.1,0,0,1-1.368.117c-12.226.006-24.452-.036-36.678.031a4.567,4.567,0,0,1-4.536-6.14,4.22,4.22,0,0,1,3.8-2.843c1.373-.1,2.758-.02,4.135-.066a1.775,1.775,0,0,0,.786-.365c.093-.059.107-.24.158-.365l2.729-6.741h-1.025q-10.589,0-21.179,0c-3.252-.005-5.652-1.788-6.338-4.71a8.137,8.137,0,0,1-.174-1.847q-.013-25.222,0-50.443c0-4.046,2.531-6.563,6.588-6.564q33.432-.007,66.864,0c3.329,0,5.712,1.761,6.388,4.733a8.033,8.033,0,0,1,.148,1.767q.011,25.262,0,50.524c0,4.038-2.525,6.537-6.6,6.541q-10.508.012-21.017,0Zm-11.281-2.18q16.756,0,33.512,0a3.953,3.953,0,0,0,4.291-4.286q0-25.22,0-50.441c0-2.937-1.555-4.486-4.512-4.486q-33.309,0-66.618,0c-2.954,0-4.493,1.544-4.493,4.5q0,25.1,0,50.2c0,3,1.527,4.518,4.552,4.518Zm.073,11.856H-548.01c-2.813,0-5.626-.011-8.439,0a2.3,2.3,0,0,0-2.472,2.4c.043,1.381,1.075,2.235,2.731,2.236q18.217,0,36.433,0a4.863,4.863,0,0,0,.966-.084,2.273,2.273,0,0,0,1.776-2.808,2.415,2.415,0,0,0-2.6-1.747Q-528.739,227.753-537.868,227.756Zm11.721-2.243c.016-.106.045-.165.029-.206-.917-2.273-1.827-4.549-2.777-6.808a.867.867,0,0,0-.661-.4q-8.395-.033-16.79.007a1.014,1.014,0,0,0-.715.545c-.905,2.132-1.764,4.284-2.634,6.432-.047.116-.069.243-.121.432Z" transform="translate(0 0)"/>
    <path id="Path_184" data-name="Path 184" d="M-519.913,223.793h-33.176c-1.463,0-1.747-.284-1.747-1.758q0-21.328,0-42.657c0-1.424.282-1.706,1.7-1.706h66.595c1.434,0,1.7.266,1.7,1.7q0,21.329,0,42.657c0,1.481-.28,1.763-1.74,1.763Zm32.823-2.251V179.89h-65.474v41.652Z" transform="translate(-18.12 -18.143)"/>
    <path id="Path_185" data-name="Path 185" d="M-396.258,406.545a1.259,1.259,0,0,1-1.225,1.257,1.256,1.256,0,0,1-1.3-1.26,1.251,1.251,0,0,1,1.264-1.213A1.248,1.248,0,0,1-396.258,406.545Z" transform="translate(-140.426 -196.568)"/>
    <path id="Path_186" data-name="Path 186" d="M-531.438,213.825a12.914,12.914,0,0,1,12.883-12.932,12.889,12.889,0,0,1,12.964,12.839,12.94,12.94,0,0,1-12.875,12.954A12.95,12.95,0,0,1-531.438,213.825Zm6.2,8.189a10.58,10.58,0,0,0,11.45,1.36c3.327-1.605,6.028-5.513,5.822-8.494-3.269,0-6.542,0-9.816.01a.787.787,0,0,0-.491.223C-520.588,217.389-522.889,219.677-525.243,222.013Zm5.623-18.8c-3.635.067-7.543,3.083-8.928,6.814-1.332,3.589-.516,8.377,1.83,10.42q3.427-3.435,6.856-6.885a.889.889,0,0,0,.232-.566C-519.616,209.762-519.62,206.524-519.62,203.217Zm11.659,9.412c-.073-4.523-4.631-9.273-9.368-9.37v9.37Z" transform="translate(-36.446 -36.333)"/>
    <path id="Path_187" data-name="Path 187" d="M-370.223,223.362c-1.686,1.685-3.247,3.249-4.812,4.809-1.869,1.863-1.869,1.86-3.736,0q-4.165-4.158-8.333-8.313c-.187-.186-.384-.363-.765-.721a4.879,4.879,0,0,1-.519.778q-4.758,4.77-9.535,9.522c-.191.19-.386.5-.6.517-.44.043-1.052.083-1.3-.166s-.2-.858-.166-1.3c.013-.19.3-.368.467-.539q5.342-5.334,10.688-10.664c.934-.931,1.351-.928,2.3.018q4.484,4.47,8.961,8.947a5.507,5.507,0,0,1,.5.649l5.2-5.245c-.26-.014-.606-.008-.944-.055a1.043,1.043,0,0,1-1.021-1.143,1.029,1.029,0,0,1,1.109-1.054c1.192-.021,2.384-.025,3.575,0q1.155.024,1.186,1.247c.028,1.081.02,2.162,0,3.243-.012.867-.394,1.329-1.072,1.355-.719.027-1.116-.434-1.157-1.342C-370.2,223.79-370.206,223.683-370.223,223.362Z" transform="translate(-139.529 -48.651)"/>
    <path id="Path_188" data-name="Path 188" d="M-349.649,279.718q0-4.542,0-9.084c0-1.231.307-1.534,1.532-1.537,1.788,0,3.576-.008,5.365,0,.965.006,1.356.361,1.358,1.315q.018,9.327,0,18.654c0,.932-.416,1.293-1.379,1.3q-2.723.013-5.446,0c-1.057,0-1.424-.356-1.427-1.4C-349.654,285.883-349.649,282.8-349.649,279.718Zm6,8.37v-16.75h-3.771v16.75Z" transform="translate(-178.939 -89.813)"/>
    <path id="Path_189" data-name="Path 189" d="M-392.725,310.676c0,1.811.007,3.623,0,5.434,0,1.006-.376,1.394-1.353,1.4q-2.764.018-5.527,0c-.984-.006-1.381-.391-1.384-1.386q-.018-5.475,0-10.949c0-1.025.4-1.4,1.452-1.412q2.682-.018,5.365,0c1.084.007,1.445.382,1.449,1.479C-392.72,307.053-392.725,308.865-392.725,310.676Zm-6-4.65v9.2h3.751v-9.2Z" transform="translate(-138.694 -116.973)"/>
    <path id="Path_190" data-name="Path 190" d="M-290.182,326.456c0,1.189.011,2.378,0,3.567-.012.978-.408,1.362-1.4,1.366q-2.762.011-5.525,0c-.952,0-1.345-.382-1.349-1.313q-.015-3.648,0-7.3c0-.944.379-1.31,1.339-1.315q2.8-.015,5.606,0c.933.006,1.315.394,1.327,1.344C-290.17,324.024-290.182,325.24-290.182,326.456Zm-2.3,2.67v-5.455h-3.695v5.455Z" transform="translate(-219.076 -130.843)"/>
    <path id="Path_191" data-name="Path 191" d="M-520.016,332.572h9.259c.217,0,.434-.006.65,0,.772.037,1.252.46,1.21,1.114a1.055,1.055,0,0,1-1.174,1.07c-.162,0-.325,0-.487,0q-9.462,0-18.924,0c-.27,0-.623.084-.793-.052-.343-.275-.805-.67-.81-1.022s.436-.777.777-1.05c.188-.15.575-.063.872-.063Q-524.727,332.57-520.016,332.572Z" transform="translate(-36.722 -139.529)"/>
    <path id="Path_192" data-name="Path 192" d="M-524.416,359.165c-1.842,0-3.684,0-5.526,0-.91,0-1.4-.394-1.416-1.091s.485-1.137,1.377-1.139q5.608-.013,11.216,0c.9,0,1.417.417,1.429,1.1.013.7-.532,1.131-1.471,1.134C-520.678,359.169-522.547,359.165-524.416,359.165Z" transform="translate(-36.509 -158.634)"/>
    <path id="Path_193" data-name="Path 193" d="M-502.846,272.573c2.354-2.336,4.655-4.624,6.965-6.9a.787.787,0,0,1,.491-.223c3.274-.013,6.547-.01,9.816-.01.205,2.981-2.5,6.889-5.822,8.494A10.58,10.58,0,0,1-502.846,272.573Z" transform="translate(-58.879 -86.94)" fill="#fff"/>
    <path id="Path_194" data-name="Path 194" d="M-511.479,211.62c0,3.307,0,6.545-.01,9.783a.89.89,0,0,1-.232.566q-3.419,3.456-6.856,6.885c-2.346-2.044-3.162-6.832-1.83-10.42C-519.022,214.7-515.115,211.687-511.479,211.62Z" transform="translate(-44.611 -44.763)" fill="#fff"/>
    <path id="Path_195" data-name="Path 195" d="M-456.955,221.187h-9.368v-9.37C-461.585,211.913-457.028,216.664-456.955,221.187Z" transform="translate(-87.5 -44.914)" fill="#fff"/>
    <path id="Path_196" data-name="Path 196" d="M-335.606,296.2h-3.771v-16.75h3.771Z" transform="translate(-186.984 -97.931)" fill="#fff"/>
    <path id="Path_197" data-name="Path 197" d="M-390.5,314.238h3.751v9.2H-390.5Z" transform="translate(-146.92 -125.185)" fill="#fff"/>
    <path id="Path_198" data-name="Path 198" d="M-284.189,337.138h-3.695v-5.455h3.695Z" transform="translate(-227.339 -138.854)" fill="#fff"/>
  </g>
</svg>
