<svg xmlns="http://www.w3.org/2000/svg" width="50" height="49.982" viewBox="0 0 50 49.982">
  <g id="delivery-man" transform="translate(578.946 -56.436)">
    <path id="Path_261" data-name="Path 261" d="M-535.475,98.27c-.314,2.192-1.532,3.223-3.9,3.265-2.1.037-4.209-.029-6.312.019-1.256.029-2.509.19-3.794.293,0,1.355.024,2.566-.019,3.775a.984.984,0,0,1-.425.724.955.955,0,0,1-.843-.059,1.137,1.137,0,0,1-.338-.79c-.042-.851-.016-1.707-.016-2.56v-.589c-.987.348-1.906.7-2.843,1-2.895.918-5.782,1.863-8.7,2.708a7.2,7.2,0,0,1-7.912-2.5c-.052-.06-.117-.108-.26-.237,0,.753,0,1.409,0,2.065,0,.685-.266,1-.821.992s-.817-.329-.817-1.005c0-1.466,0-2.933,0-4.438-.425-.06-.909-.136-1.4-.2a1.252,1.252,0,0,1-1.049-.772c-1.211-2.464-2.425-4.927-3.7-7.361a2.261,2.261,0,0,1-.165-2,11.582,11.582,0,0,1,1.246-2.559c1.027-1.377,2.191-2.655,3.341-3.936.706-.786,1.492-1.5,2.258-2.265-.057-.1-.1-.19-.151-.273a.943.943,0,0,1,.158-1.373c.951-.957,1.911-1.9,2.853-2.841a24.372,24.372,0,0,1-1.187-2.173,1.627,1.627,0,0,0-1.011-.994,3.4,3.4,0,0,1-1.467-4.936c.074-.133.157-.261.253-.42a2.922,2.922,0,0,1-.729-2.261c.031-1.075.007-2.151.008-3.227a5.779,5.779,0,0,1,4-5.925,14.16,14.16,0,0,1,8.07-.681,6.221,6.221,0,0,1,4.971,4.887c.048.18.086.363.137.584h2.923a4.139,4.139,0,0,1,3.94,2.54,2.714,2.714,0,0,1-.913,3.579,6.848,6.848,0,0,1-3.353,1.154c-.542.064-1.088.09-1.674.137-.172,3.031-.428,6.058-2.634,8.52a17.229,17.229,0,0,0,2.131,2.059,7.419,7.419,0,0,0,2.113.648v-.627q0-2.33,0-4.661c0-.8.247-1.053,1.03-1.053q11.292,0,22.583,0c.76,0,.939.186.939.932q0,10.807,0,21.614c0,1.042-.18,1.223-1.217,1.223Zm-1.6-22.1v1.9c0,1.229.008,2.458,0,3.688-.007.82-.535,1.129-1.252.765-.792-.4-1.6-.776-2.38-1.2a.749.749,0,0,0-.8.014c-.77.407-1.556.781-2.336,1.169-.885.44-1.436.11-1.44-.872-.005-1.4,0-2.8,0-4.2V76.178h-6.549v18.79l.271-.06a19.751,19.751,0,0,1,3.2-.692c2.064-.112,4.139-.062,6.208-.027a2.333,2.333,0,0,1,2.222,1.931c.034.163.073.326.107.48h9.291V76.141c-2.123,0-4.208,0-6.294,0A2.21,2.21,0,0,0-537.07,76.173Zm-33.595,6.769c-.981.98-1.946,1.9-2.858,2.869a26.284,26.284,0,0,0-2.374,2.745,16.831,16.831,0,0,0-1.34,2.622.765.765,0,0,0,.031.579q1.749,3.615,3.536,7.211a.669.669,0,0,0,.4.32,4.74,4.74,0,0,0,5.453-2.805.883.883,0,0,0-.062-.942c-.688-1.079-1.35-2.175-2-3.275a.82.82,0,0,1,.548-1.332c.467-.075.719.212.929.574q1.49,2.568,2.99,5.129a3.171,3.171,0,0,0,3.983,1.513c2.429-.809,4.854-1.631,7.291-2.418a.587.587,0,0,0,.481-.683c-.013-3.994-.008-7.989-.008-11.983,0-.068.026-.154-.005-.2-.1-.144-.188-.348-.327-.4-.435-.147-.9-.215-1.337-.347-.288-.086-.426-.011-.55.262-.315.7-.662,1.384-1,2.073-.432.877-1.107.944-1.681.168-.386-.522-.766-1.047-1.154-1.568-.074-.1-.168-.183-.283-.307-.364.919-.676,1.787-1.058,2.622a.908.908,0,0,1-.634.471,1.314,1.314,0,0,1-.763-.368c-.142-.117-.186-.356-.264-.545-.312-.748-.62-1.5-.957-2.313l-2.176,2.766c-.589.748-.927.785-1.644.186C-568.54,84.708-569.577,83.847-570.665,82.942Zm.059,17.875c.378.513.69.975,1.042,1.4a7.911,7.911,0,0,0,2.682,2.18,5.734,5.734,0,0,0,4.309.049c3.392-1.042,6.762-2.154,10.127-3.28a20.619,20.619,0,0,1,6.813-1.275c2.035.024,4.071.041,6.1,0a5.593,5.593,0,0,0,1.723-.406,1.171,1.171,0,0,0,.709-1.13c-.2,0-.365,0-.535,0q-2.924-.041-5.848-.084c-.66-.01-1-.3-.981-.844.013-.519.341-.789.978-.794s1.283,0,1.937,0c-.148-.641-.362-.817-.971-.818-1.642,0-3.284-.028-4.925.011a11.258,11.258,0,0,0-2.122.274,25.122,25.122,0,0,0-2.462.7c-2.967.975-5.922,1.987-8.893,2.95a4.793,4.793,0,0,1-5.3-1.6c-.083-.1-.173-.2-.287-.326A6.228,6.228,0,0,1-570.606,100.817Zm13.458-34.667-.129-.016c-.142.187-.278.379-.426.562a19.681,19.681,0,0,1-1.275,1.531,4.432,4.432,0,0,1-3.355,1.371c-2.7-.048-5.4-.022-8.1,0a1.072,1.072,0,0,0-.763.279,2.122,2.122,0,0,0-.239,2.047,1.408,1.408,0,0,0,1.358.924,1.173,1.173,0,0,1,1.088.9,10.437,10.437,0,0,0,1.059,2.2,5.694,5.694,0,0,0,5.3,2.618,5.505,5.505,0,0,0,5.029-3.675,14.033,14.033,0,0,0,.766-6.491C-556.9,67.646-557.043,66.9-557.147,66.149Zm-9.362-7.778a7.98,7.98,0,0,0-3.394,1.3,3.433,3.433,0,0,0-1.576,2.583c-.093,1.667-.082,3.34-.057,5.01a.852.852,0,0,0,.538.626c1.285.14,2.586.213,3.549-.917.387-.454.768-.914,1.123-1.392,1.606-2.16,3.586-3.586,6.443-3.383.711.05,1.429.008,2.312.008a12.968,12.968,0,0,0-.975-1.944,4.448,4.448,0,0,0-4.4-1.971c-2.234.341-3.57,2.109-3.7,4.568-.033.64-.348,1-.865.982s-.8-.369-.774-1.043A7.025,7.025,0,0,1-566.509,58.372Zm9.131,5.473c-1,0-2.015.033-3.03-.009a4.406,4.406,0,0,0-2.766.9A13.108,13.108,0,0,0-566,67.943c1.172,0,2.283-.069,3.382.019a3.2,3.2,0,0,0,2.786-1.225C-559,65.8-558.207,64.827-557.378,63.845Zm13.78,12.319v4.374c.678-.334,1.315-.622,1.927-.959a.951.951,0,0,1,1.007.006c.623.335,1.266.633,1.925.958v-4.38Zm-11.565-8.182a14.72,14.72,0,0,0,2.017-.212A10.137,10.137,0,0,0-551.06,67a.935.935,0,0,0,.51-1.21,2.777,2.777,0,0,0-1.893-1.855,4.05,4.05,0,0,0-3.175.8c-.083.051-.121.264-.1.387C-555.552,66.042-555.365,66.957-555.164,67.982Zm-9.427,13.241c-1.157-.763-2.278-1.506-3.406-2.237a.337.337,0,0,0-.309-.014c-.706.681-1.4,1.376-2.113,2.088l3.615,2.947Zm5.917-1.7c-.136.374-.257.674-.352.982-.047.153-.123.372-.054.473.4.6.844,1.172,1.308,1.8.259-.49.486-.889.679-1.3a.44.44,0,0,0-.016-.391C-557.6,80.566-558.114,80.073-558.674,79.52Zm-4.231.754,1.225,2.608,1.113-2.991Z" transform="translate(0 0)"/>
    <path id="Path_262" data-name="Path 262" d="M-366.027,200.457a2.217,2.217,0,0,1,.241-.03c2.092,0,4.183,0,6.312,0v20.517h-9.318c-.035-.155-.073-.318-.108-.481a2.34,2.34,0,0,0-2.228-1.936c-2.075-.036-4.156-.086-6.226.027a19.806,19.806,0,0,0-3.207.694l-.272.061V200.462h6.568v1.263c0,1.4,0,2.808,0,4.212,0,.985.557,1.316,1.444.875.782-.389,1.571-.765,2.343-1.173a.752.752,0,0,1,.8-.014c.783.422,1.593.8,2.387,1.2.719.366,1.248.055,1.256-.767.011-1.233,0-2.466,0-3.7Zm-9.876,16.407c.53,0,1.061.01,1.591,0a.784.784,0,0,0,.868-.8.787.787,0,0,0-.886-.834q-1.591-.015-3.182,0a.778.778,0,0,0-.867.8.79.79,0,0,0,.886.836C-376.965,216.873-376.434,216.864-375.9,216.864Zm-.827-4.106c-.291,0-.582-.016-.871,0a.771.771,0,0,0-.778.835.757.757,0,0,0,.767.792c.58.024,1.163.024,1.743,0a.766.766,0,0,0,.779-.833.766.766,0,0,0-.768-.794C-376.149,212.742-376.441,212.759-376.731,212.758Z" transform="translate(-171.067 -124.324)" fill="#fff"/>
    <path id="Path_263" data-name="Path 263" d="M-320.656,200.594h4.873v4.392c-.661-.326-1.306-.625-1.931-.961a.954.954,0,0,0-1.01-.006c-.613.338-1.253.627-1.932.961Z" transform="translate(-222.953 -124.435)" fill="#fff"/>
    <path id="Path_264" data-name="Path 264" d="M-360.488,309.841c-.53,0-1.061.009-1.591,0a.79.79,0,0,1-.886-.836.778.778,0,0,1,.867-.8q1.591-.018,3.182,0a.787.787,0,0,1,.886.834.784.784,0,0,1-.868.8C-359.427,309.851-359.958,309.841-360.488,309.841Z" transform="translate(-186.432 -217.307)"/>
    <path id="Path_265" data-name="Path 265" d="M-361.316,290.244c.29,0,.582-.016.871,0a.766.766,0,0,1,.768.794.766.766,0,0,1-.779.833c-.58.023-1.163.023-1.743,0a.757.757,0,0,1-.767-.792.771.771,0,0,1,.778-.835C-361.9,290.228-361.607,290.244-361.316,290.244Z" transform="translate(-186.429 -201.809)"/>
  </g>
</svg>
