<svg xmlns="http://www.w3.org/2000/svg" xmlns:xlink="http://www.w3.org/1999/xlink" width="93" height="93" viewBox="0 0 93 93">
  <defs>
    <clipPath id="clip-path">
      <rect id="Rectangle_56" data-name="Rectangle 56" width="45.808" height="52.244" fill="#fff"/>
    </clipPath>
  </defs>
  <g id="Icon-grow" transform="translate(-662 -2763)">
    <path id="Path_136" data-name="Path 136" d="M6,0H87a6,6,0,0,1,6,6V87a6,6,0,0,1-6,6H6a6,6,0,0,1-6-6V6A6,6,0,0,1,6,0Z" transform="translate(662 2763)" fill="#fedd00"/>
    <g id="cbip4" transform="translate(685.596 2783.878)" clip-path="url(#clip-path)">
      <path id="Path_132" data-name="Path 132" d="M43.453,18.439l.053-16.886h-.053V1.5L5.427,1.544l.009.009H5.427L20.38,16.5,1.5,35.378" transform="translate(-0.17 -0.17)" fill="none" stroke="#000" stroke-linecap="round" stroke-linejoin="round" stroke-miterlimit="10" stroke-width="3"/>
      <path id="Path_133" data-name="Path 133" d="M14.975,45.56H6.12V56.09h8.855Z" transform="translate(-0.695 -5.176)" fill="#fff" stroke="#000" stroke-linecap="round" stroke-linejoin="round" stroke-miterlimit="10" stroke-width="3"/>
      <path id="Path_134" data-name="Path 134" d="M31.775,38.29H22.92V55.255h8.855Z" transform="translate(-2.604 -4.35)" fill="#fff" stroke="#000" stroke-linecap="round" stroke-linejoin="round" stroke-miterlimit="10" stroke-width="3"/>
      <path id="Path_135" data-name="Path 135" d="M49.045,27.44H40.19V54.023h8.855Z" transform="translate(-4.566 -3.117)" fill="#fff" stroke="#000" stroke-linecap="round" stroke-linejoin="round" stroke-miterlimit="10" stroke-width="3"/>
    </g>
  </g>
</svg>
