<svg xmlns="http://www.w3.org/2000/svg" xmlns:xlink="http://www.w3.org/1999/xlink" width="93" height="93" viewBox="0 0 93 93">
  <defs>
    <clipPath id="clip-path">
      <rect id="Rectangle_54" data-name="Rectangle 54" width="61.285" height="62.792" fill="#fff"/>
    </clipPath>
  </defs>
  <g id="Icon-listen" transform="translate(-175 -2634)">
    <path id="Path_137" data-name="Path 137" d="M6,0H87a6,6,0,0,1,6,6V87a6,6,0,0,1-6,6H6a6,6,0,0,1-6-6V6A6,6,0,0,1,6,0Z" transform="translate(175 2634)" fill="#fedd00"/>
    <g id="cbip1" transform="translate(196 2643.09)" clip-path="url(#clip-path)">
      <path id="Path_114" data-name="Path 114" d="M51.528,19.44H1.5V63.671H51.528Z" transform="translate(-0.17 -2.209)" fill="#fedd00" stroke="#000" stroke-linecap="round" stroke-linejoin="round" stroke-miterlimit="10" stroke-width="3"/>
      <path id="Path_115" data-name="Path 115" d="M16.45,55.688V30.86" transform="translate(-1.869 -3.506)" fill="none" stroke="#000" stroke-linecap="round" stroke-linejoin="round" stroke-miterlimit="10" stroke-width="3"/>
      <path id="Path_116" data-name="Path 116" d="M44.43,51.633V37.38" transform="translate(-5.048 -4.247)" fill="none" stroke="#000" stroke-linecap="round" stroke-linejoin="round" stroke-miterlimit="10" stroke-width="3"/>
      <path id="Path_117" data-name="Path 117" d="M32.5,52.215V42.5" transform="translate(-3.692 -4.828)" fill="none" stroke="#000" stroke-linecap="round" stroke-linejoin="round" stroke-miterlimit="10" stroke-width="3"/>
      <path id="Path_118" data-name="Path 118" d="M10.28,30.86H35.1" transform="translate(-1.168 -3.506)" fill="none" stroke="#000" stroke-linecap="round" stroke-linejoin="round" stroke-miterlimit="10" stroke-width="3"/>
      <path id="Path_119" data-name="Path 119" d="M16.45,42.5H41.278" transform="translate(-1.869 -4.828)" fill="none" stroke="#000" stroke-linecap="round" stroke-linejoin="round" stroke-miterlimit="10" stroke-width="3"/>
      <path id="Path_120" data-name="Path 120" d="M26.23,53.46H42.389" transform="translate(-2.98 -6.074)" fill="none" stroke="#000" stroke-linecap="round" stroke-linejoin="round" stroke-miterlimit="10" stroke-width="3"/>
      <path id="Path_121" data-name="Path 121" d="M39.113,21.914l-.417,2.81-.417,2.8,2.81-.417,2.8-.417L64.3,6.286,59.527,1.5Z" transform="translate(-4.349 -0.17)" fill="#fff" stroke="#000" stroke-linecap="round" stroke-linejoin="round" stroke-miterlimit="10" stroke-width="3"/>
      <path id="Path_122" data-name="Path 122" d="M62.408,10.906,57.63,6.12" transform="translate(-6.548 -0.695)" fill="none" stroke="#000" stroke-linecap="round" stroke-linejoin="round" stroke-miterlimit="10" stroke-width="3"/>
      <path id="Path_123" data-name="Path 123" d="M45.256,28.058,40.47,23.28" transform="translate(-4.598 -2.645)" fill="none" stroke="#000" stroke-linecap="round" stroke-linejoin="round" stroke-miterlimit="10" stroke-width="3"/>
    </g>
  </g>
</svg>
