<svg xmlns="http://www.w3.org/2000/svg" width="24" height="24" viewBox="0 0 24 24">
  <path id="Icon_awesome-whatsapp-square" data-name="Icon awesome-whatsapp-square" d="M12,7.114A7.06,7.06,0,0,0,6.016,17.93l.166.268L5.47,20.8l2.673-.7.257.155a7.042,7.042,0,0,0,3.595.986H12a7.14,7.14,0,0,0,7.141-7.061,7.093,7.093,0,0,0-2.148-4.993A7.007,7.007,0,0,0,12,7.114Zm4.152,10.093a2.165,2.165,0,0,1-1.43,1.007,4.141,4.141,0,0,1-2.545-.53,9.536,9.536,0,0,1-3.627-3.2,4.113,4.113,0,0,1-.868-2.2,2.377,2.377,0,0,1,.745-1.773.773.773,0,0,1,.568-.268c.139,0,.284,0,.407.005s.305-.048.477.364.6,1.468.654,1.575a.375.375,0,0,1,.016.37c-.407.814-.841.782-.621,1.157a5.783,5.783,0,0,0,2.887,2.523c.214.107.338.091.461-.054s.53-.621.67-.83.284-.177.477-.107,1.237.584,1.452.691.354.161.407.246a1.885,1.885,0,0,1-.129,1.023ZM21.429,2.25H2.571A2.572,2.572,0,0,0,0,4.821V23.679A2.572,2.572,0,0,0,2.571,26.25H21.429A2.572,2.572,0,0,0,24,23.679V4.821A2.572,2.572,0,0,0,21.429,2.25ZM11.995,22.671a8.488,8.488,0,0,1-4.061-1.034L3.429,22.821l1.205-4.4A8.511,8.511,0,1,1,20.571,14.18,8.574,8.574,0,0,1,11.995,22.671Z" transform="translate(0 -2.25)"/>
</svg>
