<svg xmlns="http://www.w3.org/2000/svg" width="60" height="60" viewBox="0 0 60 60">
  <g id="Icon-agility" transform="translate(-188 -1656)">
    <rect id="Rectangle_79" data-name="Rectangle 79" width="60" height="60" rx="6" transform="translate(188 1656)" fill="#fedd00"/>
    <g id="Group_167" data-name="Group 167" transform="translate(765.188 1405.208)">
      <path id="Path_297" data-name="Path 297" d="M-273.45,587.217c-.547-.494-.533-.814.06-1.28a20.568,20.568,0,0,0,1.66-1.4h-.4q-3.03,0-6.059,0a1.491,1.491,0,0,1-.5-.062.563.563,0,0,1-.386-.648.565.565,0,0,1,.5-.522,2.676,2.676,0,0,1,.429-.016h6.407l.115-.132a1.6,1.6,0,0,1-.3-.144q-.792-.6-1.573-1.223c-.368-.291-.445-.638-.218-.943.24-.322.6-.342.993-.037q1.621,1.258,3.233,2.527a3.355,3.355,0,0,1,.344.363v.391a7.221,7.221,0,0,1-.574.567c-1.082.86-2.172,1.71-3.26,2.563Z" transform="translate(-258.042 -286.424)" stroke="#000" stroke-width="1"/>
      <path id="Path_298" data-name="Path 298" d="M-473.848,351.891c0-1.782.009-3.563-.007-5.345a.893.893,0,0,1,.506-.876q4.63-2.656,9.245-5.34a.881.881,0,0,1,.981,0q4.633,2.69,9.279,5.359a.845.845,0,0,1,.471.818q-.013,5.384,0,10.768a.818.818,0,0,1-.454.788q-4.661,2.682-9.312,5.38a.881.881,0,0,1-.981-.021q-4.633-2.69-9.278-5.36a.813.813,0,0,1-.455-.786C-473.842,355.48-473.848,353.686-473.848,351.891Zm1.879-5.568c.161.1.278.171.4.24q3.814,2.2,7.626,4.41a.573.573,0,0,0,.668,0q3.875-2.254,7.761-4.487c.074-.043.14-.1.221-.159a1.025,1.025,0,0,0-.108-.088q-4-2.312-8-4.613a.575.575,0,0,0-.476.036c-1.526.865-3.042,1.747-4.561,2.625Zm7.71,15.569c.012-.1.02-.139.02-.177,0-3.067,0-6.135.008-9.2a.453.453,0,0,0-.292-.441q-3.291-1.893-6.579-3.793l-1.468-.844a1.6,1.6,0,0,0-.029.193c0,3.067,0,6.135.009,9.2a.533.533,0,0,0,.237.376c1.3.766,2.6,1.516,3.906,2.269Zm1.27,0c.11-.052.157-.071.2-.1q3.947-2.278,7.9-4.55a.513.513,0,0,0,.268-.535q-.008-4.426,0-8.852c0-.124-.011-.248-.018-.413-.093.046-.15.071-.2.1q-3.964,2.287-7.93,4.569c-.225.129-.209.294-.209.487q0,3.9,0,7.8Z" transform="translate(-83.579 -71.091)" stroke="#000" stroke-width="1"/>
      <path id="Path_299" data-name="Path 299" d="M-545.615,264.925q.485.384.97.768c.245.193.5.378.737.579a.634.634,0,0,1,.131.9.629.629,0,0,1-.906.075c-.043-.03-.082-.064-.123-.1q-1.569-1.226-3.138-2.453c-.516-.406-.515-.8,0-1.2q1.552-1.216,3.107-2.429c.062-.048.123-.1.188-.139a.612.612,0,0,1,.871.1.618.618,0,0,1-.11.872c-.553.454-1.124.887-1.687,1.329-.109.086-.217.175-.366.3.759.138,1.461.242,2.151.4a17.311,17.311,0,0,1,13.172,14.069,17.28,17.28,0,0,1-9.364,18.3,17.2,17.2,0,0,1-7.871,1.823q-9.218.006-18.436,0a1.647,1.647,0,0,1-.462-.049.562.562,0,0,1-.432-.618.57.57,0,0,1,.538-.57,3.8,3.8,0,0,1,.468-.011q9.12,0,18.241,0a15.83,15.83,0,0,0,11.379-4.526,15.675,15.675,0,0,0,4.851-10.12,16.11,16.11,0,0,0-11.018-16.689c-.921-.3-1.883-.485-2.826-.722Z" transform="translate(0 0)" stroke="#000" stroke-width="1"/>
      <path id="Path_300" data-name="Path 300" d="M-533.246,291.754a.643.643,0,0,1,.652.529.631.631,0,0,1-.484.7c-.8.283-1.623.5-2.383.86a15.564,15.564,0,0,0-9.375,12.489,15.593,15.593,0,0,0,5.41,14.4c.486.438.593.8.3,1.115s-.623.274-1.119-.162a16.892,16.892,0,0,1-5.941-11.51,17.237,17.237,0,0,1,10.548-17.625c.679-.292,1.4-.494,2.1-.735A2.4,2.4,0,0,1-533.246,291.754Z" transform="translate(-18.744 -27.726)" stroke="#000" stroke-width="1"/>
    </g>
  </g>
</svg>
