<svg xmlns="http://www.w3.org/2000/svg" width="93" height="93" viewBox="0 0 93 93">
  <g id="Icon_1" data-name="Icon 1" transform="translate(-138 -2386)">
    <rect id="Rectangle_47" data-name="Rectangle 47" width="93" height="93" rx="6" transform="translate(138 2386)" fill="#fedd00"/>
    <g id="Group_153" data-name="Group 153" transform="translate(622.5 2303.815)">
      <path id="Path_143" data-name="Path 143" d="M-332.411,139.964c-.068.157-.139.313-.2.472a2.874,2.874,0,0,1-2.646,1.91,2.838,2.838,0,0,1-2.773-1.523.713.713,0,0,0-.71-.45q-11.12.017-22.24.01c-.153,0-.306.019-.5.032v2.95h.671q7.472,0,14.944,0a3.076,3.076,0,0,1,3.426,3.393c0,1.442.008,2.884-.005,4.326a.6.6,0,0,0,.374.632,2.948,2.948,0,0,1,1.532,3.4,3.052,3.052,0,0,1-2.953,2.243,3.051,3.051,0,0,1-2.882-2.261,3.034,3.034,0,0,1,1.546-3.417.792.792,0,0,0,.362-.552c.029-1.52.025-3.04.013-4.56-.007-.843-.382-1.211-1.233-1.212q-7.707-.007-15.415,0c-.114,0-.228.018-.381.031v2.979H-351c.2,0,.394-.008.588.01a.992.992,0,0,1,.93.957,1.006,1.006,0,0,1-.825,1,3.137,3.137,0,0,1-.586.027q-4.972,0-9.943,0h-.661v1.993h.643c1.746,0,3.491-.008,5.236,0a2.965,2.965,0,0,1,3.11,3.089q.024,2.777,0,5.554a.687.687,0,0,0,.432.717,2.941,2.941,0,0,1,1.5,3.367,3.006,3.006,0,0,1-2.943,2.244,3.029,3.029,0,0,1-2.875-2.182,2.933,2.933,0,0,1,1.475-3.424.682.682,0,0,0,.42-.721c-.016-1.793,0-3.586-.009-5.379,0-.936-.337-1.273-1.266-1.275-1.863,0-3.726-.009-5.589.01a.879.879,0,0,0-.587.248,1.98,1.98,0,0,1-1.727.691,15.315,15.315,0,0,1-9.51-3.989c-4.758-4.375-6.494-9.8-4.834-16.019s5.9-10.02,12.2-11.53a16.739,16.739,0,0,1,2.269-.295,1.862,1.862,0,0,1,1.569.649.991.991,0,0,0,.627.286c1.883.022,3.765.016,5.648.011.835,0,1.2-.347,1.2-1.159.008-1.851,0-3.7.009-5.554a.606.606,0,0,0-.372-.632,2.933,2.933,0,0,1-1.532-3.4,3.022,3.022,0,0,1,2.892-2.234,3.01,3.01,0,0,1,2.939,2.251,3.033,3.033,0,0,1-1.543,3.415.851.851,0,0,0-.364.612c-.028,1.831-.01,3.664-.018,5.5a2.98,2.98,0,0,1-3.236,3.2q-2.794.006-5.589.01a.681.681,0,0,0-.153.051V128.4h.652q4.971,0,9.943,0a2.364,2.364,0,0,1,.75.091.894.894,0,0,1,.642,1,.931.931,0,0,1-.866.886,4.438,4.438,0,0,1-.588.014h-10.522V133.4h15.611c1.082,0,1.4-.318,1.406-1.393,0-1.442-.008-2.884.008-4.326a.6.6,0,0,0-.379-.628,2.938,2.938,0,0,1-1.51-3.509,3.018,3.018,0,0,1,3.083-2.132,3.014,3.014,0,0,1,2.795,2.7,2.913,2.913,0,0,1-1.524,2.876.77.77,0,0,0-.468.816c.02,1.442.013,2.884.007,4.326a3.045,3.045,0,0,1-3.316,3.264q-7.5,0-15,0h-.729v2.952c.219.011.427.03.635.03q11,0,22,0c.306,0,.578.036.774-.342a2.823,2.823,0,0,1,2.882-1.623,2.892,2.892,0,0,1,2.665,2.128,2.4,2.4,0,0,0,.121.255Zm-31.162-14.478a13.741,13.741,0,0,0-11.49,7.61,13.376,13.376,0,0,0,1.35,14.707,13.611,13.611,0,0,0,10.14,5.511Zm11.061-11.072a.994.994,0,0,0-1.023-.977,1.031,1.031,0,0,0-.97.987,1,1,0,0,0,1.01.993A.965.965,0,0,0-352.512,114.414Zm-1,50.912a.992.992,0,0,0,.995-1,.961.961,0,0,0-.951-.976,1,1,0,0,0-1.04.962A1.025,1.025,0,0,0-353.508,165.326Zm19.086-25.92a1,1,0,0,0-.992-1.009.977.977,0,0,0-1,.932.983.983,0,0,0,.954,1.039A1,1,0,0,0-334.422,139.406Zm-8.034-14.977a.994.994,0,0,0-1-1,.964.964,0,0,0-.987.938.971.971,0,0,0,.956,1.03A1,1,0,0,0-342.456,124.429Zm-1.031,30.906a1,1,0,0,0,1.031-.969,1,1,0,0,0-1-1,.966.966,0,0,0-.987.939A.97.97,0,0,0-343.487,155.334Z" transform="translate(-75.589 -10.698)"/>
      <path id="Path_144" data-name="Path 144" d="M-468,126.927c.043-.286.1-.57.127-.857a2.848,2.848,0,0,1,2.536-2.653c.891-.133,1.781-.274,2.663-.453a.688.688,0,0,0,.441-.406,26.211,26.211,0,0,1,2.784-6.665.746.746,0,0,0-.059-.65c-.507-.764-1.067-1.492-1.594-2.243a2.665,2.665,0,0,1,.156-3.544c1.2-1.3,2.471-2.554,3.78-3.753a2.7,2.7,0,0,1,3.473-.153q1.162.8,2.293,1.635a.553.553,0,0,0,.726.035,23.384,23.384,0,0,1,6.532-2.708.627.627,0,0,0,.561-.607c.117-.848.278-1.69.411-2.537a2.8,2.8,0,0,1,2.774-2.525c.449-.033.9-.086,1.348-.1a1.989,1.989,0,0,1,2.173,2.081c.027,1.286.007,2.573.007,3.859q0,1.813,0,3.625c0,1.632-.671,2.333-2.321,2.457a17.278,17.278,0,0,0-11.438,5.216c-4.937,5.069-6.546,11.135-4.506,17.878s6.788,10.848,13.691,12.442c.892.206,1.824.237,2.736.357a1.925,1.925,0,0,1,1.821,1.948c.032,2.689.024,5.379,0,8.068a2.052,2.052,0,0,1-1.58,1.951h-1.412a3.64,3.64,0,0,0-.454-.1,2.83,2.83,0,0,1-2.855-2.644c-.133-.826-.295-1.648-.412-2.477a.548.548,0,0,0-.491-.532,23.73,23.73,0,0,1-6.588-2.725.553.553,0,0,0-.726.034c-.768.573-1.546,1.132-2.34,1.668a2.7,2.7,0,0,1-3.377-.147c-1.3-1.2-2.578-2.448-3.787-3.746a2.685,2.685,0,0,1-.158-3.637c.518-.733,1.065-1.446,1.561-2.194a.748.748,0,0,0,.056-.651,26.285,26.285,0,0,1-2.787-6.663.688.688,0,0,0-.441-.407c-.882-.18-1.773-.317-2.662-.455a2.859,2.859,0,0,1-2.541-2.712c-.023-.269-.08-.534-.122-.8Zm29.077-26.2c-.484.037-.928.08-1.372.1a.857.857,0,0,0-.887.828c-.177,1.135-.378,2.266-.564,3.4-.134.818-.289,1-1.132,1.19a22.594,22.594,0,0,0-7.436,3.093,1.255,1.255,0,0,1-1.611-.073c-.923-.692-1.878-1.341-2.813-2.017a.854.854,0,0,0-1.218.03q-1.7,1.659-3.372,3.336a.89.89,0,0,0-.08,1.3c.7.941,1.364,1.9,2.063,2.845a1.182,1.182,0,0,1,.049,1.5,22.249,22.249,0,0,0-3.155,7.561,1.153,1.153,0,0,1-1.066.991c-1.181.179-2.357.391-3.538.571a.825.825,0,0,0-.806.846q-.03,2.422,0,4.844a.85.85,0,0,0,.833.886c1.181.177,2.357.387,3.537.575a1.13,1.13,0,0,1,1.037.954,22.4,22.4,0,0,0,3.174,7.616,1.151,1.151,0,0,1-.042,1.454c-.684.927-1.353,1.865-2.022,2.8-.446.623-.459.872.086,1.433,1.047,1.078,2.12,2.132,3.2,3.174.52.5.8.5,1.394.081.943-.666,1.886-1.331,2.815-2.015a1.157,1.157,0,0,1,1.459-.068,22.6,22.6,0,0,0,7.658,3.161,1.152,1.152,0,0,1,.983,1.076c.175,1.175.36,2.349.594,3.513a1.014,1.014,0,0,0,.5.7,11.252,11.252,0,0,0,1.768.222c0-2.622,0-5.135.005-7.647,0-.369-.214-.387-.487-.421-.893-.112-1.8-.183-2.673-.373a19.84,19.84,0,0,1-15.2-24.73c2.279-7.983,7.725-12.791,15.923-14.462.779-.159,1.579-.219,2.4-.328Z"/>
      <path id="Path_145" data-name="Path 145" d="M-222.82,125.246a.967.967,0,0,1-.983,1.008,1,1,0,0,1-1.01-1,1.033,1.033,0,0,1,.969-.992A1,1,0,0,1-222.82,125.246Z" transform="translate(-205.195 -21.517)" fill="#fff"/>
      <path id="Path_146" data-name="Path 146" d="M-223.809,445.762a1.027,1.027,0,0,1-1-1.023,1,1,0,0,1,1.04-.967.964.964,0,0,1,.951.981A.994.994,0,0,1-223.809,445.762Z" transform="translate(-205.201 -291.143)" fill="#fff"/>
      <path id="Path_147" data-name="Path 147" d="M-107.538,285.07a1,1,0,0,1-1.04.966.985.985,0,0,1-.954-1.044.979.979,0,0,1,1-.936A1,1,0,0,1-107.538,285.07Z" transform="translate(-302.473 -156.362)" fill="#fff"/>
      <path id="Path_148" data-name="Path 148" d="M-158.7,189.253a1,1,0,0,1-1.031.975.974.974,0,0,1-.956-1.034.966.966,0,0,1,.987-.942A1,1,0,0,1-158.7,189.253Z" transform="translate(-259.346 -75.524)" fill="#fff"/>
      <path id="Path_149" data-name="Path 149" d="M-159.73,381.87a.973.973,0,0,1-.956-1.034.967.967,0,0,1,.987-.943,1,1,0,0,1,1,1A1,1,0,0,1-159.73,381.87Z" transform="translate(-259.345 -237.227)" fill="#fff"/>
      <path id="Path_150" data-name="Path 150" d="M-427.521,111.469v7.956c-.818.11-1.618.169-2.4.328-8.2,1.671-13.644,6.478-15.923,14.458a19.834,19.834,0,0,0,15.2,24.722c.877.19,1.78.261,2.673.373.272.034.488.052.487.421-.01,2.512-.005,5.024-.005,7.645a11.256,11.256,0,0,1-1.768-.222,1.014,1.014,0,0,1-.5-.7c-.234-1.164-.419-2.338-.594-3.512a1.152,1.152,0,0,0-.983-1.076,22.6,22.6,0,0,1-7.658-3.16,1.157,1.157,0,0,0-1.459.068c-.929.684-1.872,1.349-2.815,2.015-.59.416-.874.419-1.394-.081-1.084-1.042-2.157-2.1-3.2-3.173-.545-.561-.531-.81-.086-1.433.67-.936,1.338-1.874,2.022-2.8a1.15,1.15,0,0,0,.042-1.453,22.391,22.391,0,0,1-3.174-7.614,1.13,1.13,0,0,0-1.037-.953c-1.18-.187-2.356-.4-3.537-.574a.849.849,0,0,1-.833-.886q-.025-2.421,0-4.843a.825.825,0,0,1,.806-.845c1.181-.181,2.357-.392,3.538-.571a1.153,1.153,0,0,0,1.066-.991,22.238,22.238,0,0,1,3.155-7.559,1.181,1.181,0,0,0-.049-1.5c-.7-.939-1.365-1.9-2.062-2.844a.889.889,0,0,1,.08-1.3q1.682-1.672,3.372-3.335a.854.854,0,0,1,1.218-.03c.935.676,1.891,1.324,2.813,2.016a1.255,1.255,0,0,0,1.611.073,22.6,22.6,0,0,1,7.436-3.092c.843-.189,1-.372,1.132-1.19.186-1.133.387-2.264.564-3.4a.857.857,0,0,1,.887-.828C-428.448,111.549-428.005,111.506-427.521,111.469Z" transform="translate(-11.403 -10.729)" fill="#fff"/>
    </g>
  </g>
</svg>
