<svg xmlns="http://www.w3.org/2000/svg" width="60" height="60" viewBox="0 0 60 60">
  <g id="Icon-global" transform="translate(-696 -1852)">
    <rect id="Rectangle_81" data-name="Rectangle 81" width="60" height="60" rx="6" transform="translate(696 1852)" fill="#fedd00"/>
    <g id="Group_166" data-name="Group 166" transform="translate(1347.253 1695.169)">
      <path id="Path_295" data-name="Path 295" d="M-631.3,195.188a13.044,13.044,0,0,1-3.347-7.946h-4.3a3.219,3.219,0,0,1-1.964,2.179,3.144,3.144,0,0,1-2.173.033,3.176,3.176,0,0,1-2.153-3.433,3.2,3.2,0,0,1,2.746-2.769,3.3,3.3,0,0,1,3.6,2.6h4.224a13.057,13.057,0,0,1,3.242-8.01l-3.062-3.049c-1.834.723-3.355.364-4.276-1.051a3.216,3.216,0,0,1,.444-4.034,3.2,3.2,0,0,1,4.035-.345c1.4.961,1.7,2.489.872,4.457.909.912,1.827,1.834,2.747,2.754.077.077.166.143.269.232a13.076,13.076,0,0,1,7.913-3.348v-4.305c-1.916-.881-2.7-2.2-2.3-3.876a3.168,3.168,0,0,1,3.269-2.448,3.2,3.2,0,0,1,2.995,2.731c.253,1.62-.662,2.927-2.565,3.642v4.243a13.041,13.041,0,0,1,8.007,3.271l3.049-3.057a3.414,3.414,0,0,1-.386-2.235,3.177,3.177,0,0,1,3.96-2.489,3.184,3.184,0,0,1,2.151,4.12,3.138,3.138,0,0,1-4.287,1.835.613.613,0,0,0-.851.15c-.857.892-1.74,1.757-2.634,2.654a13.106,13.106,0,0,1,3.363,8.035h4.249c.719-1.87,2.1-2.776,3.738-2.456a3.189,3.189,0,0,1,2.6,3.155,3.185,3.185,0,0,1-2.71,3.159c-1.571.275-2.93-.644-3.614-2.453h-4.263a13.4,13.4,0,0,1-.969,4.272,13.085,13.085,0,0,1-2.272,3.645l3.085,3.028a3.334,3.334,0,0,1,2.184-.35A3.2,3.2,0,0,1-604.2,201.7a3.18,3.18,0,0,1-4.181,2.173,3.161,3.161,0,0,1-1.792-4.317.61.61,0,0,0-.171-.847c-.874-.855-1.725-1.734-2.607-2.626a13.061,13.061,0,0,1-8.028,3.369v4.259a3.269,3.269,0,0,1,2.193,1.815,3.158,3.158,0,0,1,.178,2.17,3.184,3.184,0,0,1-3.3,2.343,3.2,3.2,0,0,1-2.934-2.686c-.271-1.6.612-2.917,2.482-3.669,0-1.259,0-2.531,0-3.8,0-.127-.011-.254-.019-.424a13.359,13.359,0,0,1-4.257-.974,13.289,13.289,0,0,1-3.781-2.4c-.307.353-.6.714-.915,1.046-.569.592-1.145,1.178-1.742,1.741a.5.5,0,0,0-.118.692,3.17,3.17,0,0,1-.623,3.575,3.2,3.2,0,0,1-3.557.712,3.244,3.244,0,0,1-1.961-3.016,3.209,3.209,0,0,1,4.624-2.834.517.517,0,0,0,.73-.121C-633.1,196.973-632.208,196.1-631.3,195.188Zm-2.017-8.749a11.671,11.671,0,0,0,11.563,11.683,11.676,11.676,0,0,0,11.7-11.694,11.632,11.632,0,0,0-11.615-11.619A11.638,11.638,0,0,0-633.315,186.438Zm26.024-16.275a1.852,1.852,0,0,0-1.837,1.842,1.862,1.862,0,0,0,1.836,1.851,1.852,1.852,0,0,0,1.851-1.878A1.812,1.812,0,0,0-607.291,170.164Zm-14.384-5.98a1.825,1.825,0,0,0-1.843,1.831,1.844,1.844,0,0,0,1.829,1.852,1.844,1.844,0,0,0,1.843-1.839A1.825,1.825,0,0,0-621.675,164.184Zm0,44.508a1.825,1.825,0,0,0,1.828-1.846,1.832,1.832,0,0,0-1.845-1.83,1.833,1.833,0,0,0-1.828,1.848A1.824,1.824,0,0,0-621.672,208.691Zm-22.216-22.259a1.826,1.826,0,0,0,1.829,1.845,1.844,1.844,0,0,0,1.846-1.836,1.844,1.844,0,0,0-1.837-1.845A1.824,1.824,0,0,0-643.888,186.433Zm44.413.019a1.826,1.826,0,0,0-1.819-1.855,1.843,1.843,0,0,0-1.855,1.826,1.845,1.845,0,0,0,1.827,1.855A1.826,1.826,0,0,0-599.475,186.452Zm-36.634,16.259a1.845,1.845,0,0,0,1.868-1.817,1.878,1.878,0,0,0-1.827-1.872,1.842,1.842,0,0,0-1.853,1.829A1.814,1.814,0,0,0-636.109,202.711Zm-1.811-30.728a1.846,1.846,0,0,0,1.816,1.867,1.875,1.875,0,0,0,1.864-1.832,1.842,1.842,0,0,0-1.829-1.852A1.809,1.809,0,0,0-637.92,171.983Zm32.476,28.91a1.848,1.848,0,0,0-1.814-1.87,1.876,1.876,0,0,0-1.866,1.83,1.841,1.841,0,0,0,1.826,1.855A1.811,1.811,0,0,0-605.443,200.893Z" transform="translate(0 0)" stroke="#000" stroke-width="1"/>
      <path id="Path_296" data-name="Path 296" d="M-511.019,281.11c0,1.382-.011,2.764.007,4.145a.947.947,0,0,1-.532.922q-3.627,2.082-7.241,4.186a.916.916,0,0,1-1.02,0q-3.613-2.106-7.24-4.187a.946.946,0,0,1-.537-.917q.018-4.193,0-8.386a.912.912,0,0,1,.512-.882q3.647-2.094,7.28-4.213a.888.888,0,0,1,.98,0q3.636,2.113,7.281,4.211a.946.946,0,0,1,.516.931C-511.029,278.314-511.019,279.712-511.019,281.11Zm-8.945,7.616v-.5c0-2.112-.009-4.224.009-6.336a.657.657,0,0,0-.4-.661c-1.83-1.043-3.65-2.1-5.474-3.157-.118-.068-.244-.123-.417-.21,0,2.388,0,4.718.01,7.048a.467.467,0,0,0,.223.314C-524.028,286.379-522.04,287.525-519.964,288.726Zm7.612-10.845a1.4,1.4,0,0,0-.2.067c-1.947,1.125-3.9,2.246-5.832,3.392a.717.717,0,0,0-.237.538c-.016,2.128-.011,4.255-.01,6.383,0,.133.013.267.023.456,2.055-1.189,4.055-2.343,6.048-3.509a.459.459,0,0,0,.2-.33C-512.349,282.561-512.351,280.243-512.351,277.881Zm-.667-1.208c-.789-.458-1.506-.858-2.206-1.287a.58.58,0,0,0-.689.009c-.979.584-1.97,1.146-2.956,1.717l-2.965,1.716c.378.222.7.416,1.026.6.494.283.992.785,1.485.781.514,0,1.03-.487,1.535-.777C-516.226,278.536-514.669,277.629-513.019,276.672Zm-3.882-2.243c-.706-.412-1.355-.771-1.981-1.164a.677.677,0,0,0-.811-.007c-1.771,1.045-3.556,2.066-5.335,3.1-.157.091-.309.192-.523.326.779.451,1.5.876,2.228,1.277a.468.468,0,0,0,.382-.042C-520.953,276.776-518.969,275.626-516.9,274.429Z" transform="translate(-102.384 -94.639)" stroke="#000" stroke-width="1"/>
    </g>
  </g>
</svg>
