<svg xmlns="http://www.w3.org/2000/svg" width="60" height="60" viewBox="0 0 60 60">
  <g id="Icon-sustainable" transform="translate(-188 -1852)">
    <rect id="Rectangle_80" data-name="Rectangle 80" width="60" height="60" rx="6" transform="translate(188 1852)" fill="#fedd00"/>
    <g id="Group_168" data-name="Group 168" transform="translate(668.226 1600.04)">
      <path id="Path_301" data-name="Path 301" d="M-450.347,299.96h-15.287c-1.26,0-1.579-.317-1.579-1.564,0-7.443.012-14.887-.012-22.33a15.3,15.3,0,0,1,.506-4.127c.628-2.3,1.168-4.632,1.751-6.948a1.121,1.121,0,0,1,1.312-1.027q13.327,0,26.653,0c.79,0,1.1.254,1.3,1.044q1.062,4.214,2.108,8.432a4.723,4.723,0,0,1,.128,1.115q.011,11.929,0,23.859c0,1.216-.326,1.547-1.531,1.547Q-442.67,299.962-450.347,299.96Zm-14.714-2.18h29.423V275.17h-29.423Zm13.627-31.662h-11.629l-1.7,6.845h13.333Zm2.19,6.833h13.337l-1.707-6.822h-11.631Z" transform="translate(0 0)"/>
      <path id="Path_302" data-name="Path 302" d="M-410.38,354.183c-.3.684-.587,1.351-.871,2.022-.323.76-.838,1.054-1.454.821-.6-.227-.8-.82-.481-1.589s.712-1.533,1.015-2.32a1.035,1.035,0,0,0-.049-.8,6.02,6.02,0,0,1-.744-4.867c.659-2.451,2.513-3.519,4.769-4.085,1.216-.3,2.467-.475,3.684-.778a5.7,5.7,0,0,0,3.661-2.612,1.024,1.024,0,0,1,1.268-.529.993.993,0,0,1,.72,1.106,26.164,26.164,0,0,1-2.831,11.186,5.989,5.989,0,0,1-7.619,2.948C-409.649,354.551-409.971,354.377-410.38,354.183Zm9.145-10.814a13.371,13.371,0,0,1-4.79,1.728c-.853.147-1.7.349-2.535.576a3.2,3.2,0,0,0-2.527,3.344,11.516,11.516,0,0,0,.271,1.672,2.614,2.614,0,0,0,.246-.208c.129-.174.253-.352.382-.527a8.919,8.919,0,0,1,4.666-3.366,1.225,1.225,0,0,1,1.038.253,1.2,1.2,0,0,1,.228,1.044,1.508,1.508,0,0,1-.845.7,7.891,7.891,0,0,0-4.147,3.735,3.749,3.749,0,0,0,5.141-.725A17.621,17.621,0,0,0-401.235,343.369Z" transform="translate(-44.19 -61.608)"/>
    </g>
  </g>
</svg>
