<svg xmlns="http://www.w3.org/2000/svg" width="60" height="60" viewBox="0 0 60 60">
  <g id="Icon-personalized" transform="translate(-696 -1657)">
    <rect id="Rectangle_82" data-name="Rectangle 82" width="60" height="60" rx="6" transform="translate(696 1657)" fill="#fedd00"/>
    <g id="personalized" transform="translate(696 1656.405)">
      <path id="Path_288" data-name="Path 288" d="M305,128.146v0Z" transform="translate(-274.827 -107.712)" stroke="#000" stroke-linecap="round" stroke-linejoin="round" stroke-miterlimit="10" stroke-width="2.5"/>
      <path id="Path_289" data-name="Path 289" d="M185,15.63V25.7l10.28,5.035,10.28-5.035V15.63l-10.28-5.035Z" transform="translate(-165.138)" fill="none" stroke="#000" stroke-linecap="round" stroke-linejoin="round" stroke-miterlimit="10" stroke-width="2.5"/>
      <path id="Path_290" data-name="Path 290" d="M205.559,69.37l-10.28,5.035L185,69.37" transform="translate(-165.138 -53.74)" fill="none" stroke="#000" stroke-linecap="round" stroke-linejoin="round" stroke-miterlimit="10" stroke-width="2.5"/>
      <path id="Path_291" data-name="Path 291" d="M24.635,55.074l-3.484-7.38L10,37.63V15.493" transform="translate(0 -4.479)" fill="none" stroke="#000" stroke-linecap="round" stroke-linejoin="round" stroke-miterlimit="10" stroke-width="2.5"/>
      <path id="Path_292" data-name="Path 292" d="M117.421,262.5l-.7-10.242L105,245.7" transform="translate(-89.045 -215.665)" fill="none" stroke="#000" stroke-linecap="round" stroke-linejoin="round" stroke-miterlimit="10" stroke-width="2.5"/>
      <path id="Path_293" data-name="Path 293" d="M424.168,55.074l3.484-7.38L438.8,37.63V15.493" transform="translate(-388.803 -4.479)" fill="none" stroke="#000" stroke-linecap="round" stroke-linejoin="round" stroke-miterlimit="10" stroke-width="2.5"/>
      <path id="Path_294" data-name="Path 294" d="M355,262.5l.7-10.242L367.42,245.7" transform="translate(-323.374 -215.665)" fill="none" stroke="#000" stroke-linecap="round" stroke-linejoin="round" stroke-miterlimit="10" stroke-width="2.5"/>
    </g>
  </g>
</svg>
