<svg xmlns="http://www.w3.org/2000/svg" width="93" height="93" viewBox="0 0 93 93">
  <g id="Icon_2" data-name="Icon 2" transform="translate(-478 -2386)">
    <rect id="Rectangle_48" data-name="Rectangle 48" width="93" height="93" rx="6" transform="translate(478 2386)" fill="#62c4b4"/>
    <g id="carbon-neutral" transform="translate(967.5 2326.367)">
      <path id="Path_151" data-name="Path 151" d="M-473,297.52c.847-1.083,1.6-1.054,2.389.094s1.579,2.288,2.37,3.431c.106.154.223.3.428.574.019-.342.038-.544.039-.747,0-1-.013-2,.011-3a1.154,1.154,0,0,1,1.146-1.233,1.136,1.136,0,0,1,1.181,1.194q.031,3.646,0,7.292a1.264,1.264,0,0,1-.909,1.3,1.279,1.279,0,0,1-1.463-.607c-.917-1.312-1.82-2.634-2.844-3.931q0,1.389,0,2.778c0,.255.013.511-.008.764a1.134,1.134,0,0,1-.853,1.073,1.114,1.114,0,0,1-1.249-.422c-.086-.1-.16-.213-.24-.32Z" transform="translate(0 -185.419)"/>
      <path id="Path_152" data-name="Path 152" d="M-473,211.242c.116-.37.214-.747.352-1.108a5.089,5.089,0,0,1,7.244-2.613c.819.463,1.084,1.129.708,1.778-.363.627-1.017.728-1.841.293a2.667,2.667,0,0,0-3.077.235,2.714,2.714,0,0,0-.925,2.9,2.711,2.711,0,0,0,2.37,1.979,2.059,2.059,0,0,0,1.768-.588,1.17,1.17,0,0,1,1.8-.145,1.245,1.245,0,0,1-.156,1.821,4.831,4.831,0,0,1-7.432-1.1,13.224,13.224,0,0,1-.811-1.921Z" transform="translate(0 -109.694)"/>
      <path id="Path_153" data-name="Path 153" d="M-381.823,85.761a7.134,7.134,0,0,1-.832,3.318c-.058.108.043.355.139.488.608.839,1.25,1.654,1.851,2.5a1.2,1.2,0,0,1-.209,1.8,1.191,1.191,0,0,1-1.706-.457c-.561-.773-1.129-1.541-1.606-2.192a20.976,20.976,0,0,1-2.932,1.179,6.968,6.968,0,0,1-5.542-1.257,11.979,11.979,0,0,1-3.935-4.348c-.093-.168-.19-.335-.353-.624-1.27.634-2.544,1.213-3.762,1.892a24.272,24.272,0,0,0-5.17,4.011,1.672,1.672,0,0,1-1.154.5,1.52,1.52,0,0,1-.925-.749,1,1,0,0,1,.324-1.267c1.356-1.175,2.68-2.4,4.111-3.474a22.8,22.8,0,0,1,5.692-3c-.136-1.126-.321-2.222-.385-3.326a17.493,17.493,0,0,1,.116-2.4,1.068,1.068,0,0,1,.818-.971,12.925,12.925,0,0,1,13.932,4.3.588.588,0,0,1,.1.143c.4,1.2,1.4,1.475,2.472,1.8a25.673,25.673,0,0,1,11.135,6.871,1.2,1.2,0,0,1,.134,1.77,1.161,1.161,0,0,1-1.8-.126,23.977,23.977,0,0,0-9.646-6.116C-381.223,85.932-381.5,85.858-381.823,85.761Zm-2.506,1.539a10.831,10.831,0,0,0,.1-1.8,5.313,5.313,0,0,0-1.712-3.262,10.567,10.567,0,0,0-9.4-2.906c-.414.061-.547.2-.555.624a10.988,10.988,0,0,0,2.932,7.882A7.152,7.152,0,0,0-389.622,90a3.882,3.882,0,0,0,3.7-.678,3.675,3.675,0,0,0-.342-.363c-1.4-1.119-2.814-2.222-4.2-3.356a2.256,2.256,0,0,1-.7-.882,1,1,0,0,1,.436-1.182,1.133,1.133,0,0,1,1.416.03C-387.686,84.776-386.07,86-384.329,87.3Z" transform="translate(-54.735)"/>
      <path id="Path_154" data-name="Path 154" d="M-388.982,396.375a25.984,25.984,0,0,1-18.431-8.077,1.2,1.2,0,0,1-.121-1.813,1.21,1.21,0,0,1,1.8.181,22.622,22.622,0,0,0,9.6,6.073c9.146,2.8,17.309,1.006,24.389-5.521.187-.172.359-.36.541-.538.639-.623,1.347-.686,1.848-.168a1.2,1.2,0,0,1-.18,1.809,46.145,46.145,0,0,1-3.783,3.23A26.382,26.382,0,0,1-388.982,396.375Z" transform="translate(-54.891 -260.931)"/>
      <path id="Path_155" data-name="Path 155" d="M-137.464,212.052c0,1.266.014,2.532,0,3.8A1.153,1.153,0,0,1-139.026,217a1.134,1.134,0,0,1-.779-1.135q-.016-3.882,0-7.765a1.136,1.136,0,0,1,.883-1.175,1.145,1.145,0,0,1,1.315.54q1.4,2.031,2.8,4.062c.109.158.225.312.414.572.026-.255.054-.393.053-.53-.012-1.157-.041-2.314-.04-3.47a1.132,1.132,0,0,1,.869-1.185,1.052,1.052,0,0,1,1.238.444,1.542,1.542,0,0,1,.224.77q.064,3.705.087,7.412a1.3,1.3,0,0,1-.936,1.4,1.282,1.282,0,0,1-1.492-.659c-.873-1.254-1.735-2.515-2.6-3.773-.115-.167-.234-.33-.351-.5Z" transform="translate(-281.041 -109.69)"/>
      <path id="Path_156" data-name="Path 156" d="M-212.66,206.92a5.108,5.108,0,0,1,5.085,5.086,5.142,5.142,0,0,1-5.12,5.124,5.113,5.113,0,0,1-5.074-5.158A5.091,5.091,0,0,1-212.66,206.92Zm0,2.354a2.73,2.73,0,0,0-2.761,2.694,2.758,2.758,0,0,0,2.721,2.807,2.781,2.781,0,0,0,2.773-2.766A2.752,2.752,0,0,0-212.657,209.274Z" transform="translate(-215.291 -109.74)"/>
      <path id="Path_157" data-name="Path 157" d="M-272.434,211.939c0-1.215,0-2.43,0-3.645,0-1.011.409-1.41,1.433-1.415.7,0,1.409-.015,2.112.006a2.941,2.941,0,0,1,2.7,3.936.824.824,0,0,0,.16.928,3.09,3.09,0,0,1,.457,3.312,3.027,3.027,0,0,1-2.635,1.967,28.229,28.229,0,0,1-3.047.05,1.141,1.141,0,0,1-1.176-1.26C-272.442,214.526-272.434,213.232-272.434,211.939Zm2.368,2.746a15.215,15.215,0,0,0,1.686-.014.814.814,0,0,0,.718-.923.808.808,0,0,0-.732-.855c-.549-.051-1.105-.012-1.672-.012Zm.008-5.444v1.228a4.622,4.622,0,0,0,1.166-.027c.215-.059.519-.4.5-.576a.9.9,0,0,0-.546-.6A4.014,4.014,0,0,0-270.058,209.24Z" transform="translate(-169.173 -109.701)"/>
      <path id="Path_158" data-name="Path 158" d="M-327.627,213.1c.579.66,1.115,1.256,1.635,1.866a1.219,1.219,0,0,1,.026,1.821,1.2,1.2,0,0,1-1.8-.273,23.815,23.815,0,0,0-2.048-2.132c0,.48.01.961,0,1.441a1.176,1.176,0,0,1-1.124,1.255,1.168,1.168,0,0,1-1.213-1.235q-.026-3.881,0-7.761a1.144,1.144,0,0,1,1.235-1.2c.684-.014,1.369-.013,2.054,0a3.286,3.286,0,0,1,3.2,2.447,3.174,3.174,0,0,1-1.674,3.6C-327.41,212.972-327.492,213.021-327.627,213.1Zm-2.144-2.152c.648-.019,1.31.183,1.7-.45a.966.966,0,0,0-.018-.85c-.4-.62-1.059-.4-1.677-.394Z" transform="translate(-118.795 -109.696)"/>
      <path id="Path_159" data-name="Path 159" d="M-238.448,304.515c0,.43.018.86,0,1.288a1.162,1.162,0,0,1-1.111,1.149,1.158,1.158,0,0,1-1.2-1.062c-.053-.544-.028-1.1-.028-1.646q0-2.8,0-5.591c0-1.11.423-1.54,1.518-1.542a17.587,17.587,0,0,1,1.994.042,3.126,3.126,0,0,1,2.8,2.458,3.067,3.067,0,0,1-1.6,3.359c-.066.04-.128.084-.245.162.513.585,1.043,1.126,1.492,1.728a2.01,2.01,0,0,1,.39,1.054.994.994,0,0,1-.743.956,1.114,1.114,0,0,1-1.278-.335c-.493-.531-.96-1.087-1.439-1.631-.137-.156-.279-.308-.419-.461Zm.047-3.537c.594.005,1.187.18,1.527-.407a.79.79,0,0,0-.021-.7c-.366-.533-.934-.423-1.506-.369Z" transform="translate(-195.86 -185.811)"/>
      <path id="Path_160" data-name="Path 160" d="M-393.427,215.824a1.174,1.174,0,0,1-.882,1.271,1.063,1.063,0,0,1-1.331-.676c-.178-.6-.522-.663-1.042-.638-.761.037-1.526.024-2.289,0a.566.566,0,0,0-.649.42,1.183,1.183,0,0,1-1.6.846,1.232,1.232,0,0,1-.563-1.741q1.385-3.65,2.781-7.3c.294-.769.707-1.09,1.363-1.075A1.389,1.389,0,0,1-396.322,208q1.37,3.656,2.746,7.309C-393.5,215.51-393.456,215.721-393.427,215.824Zm-3.382-2.421-.861-2.291-.871,2.291Z" transform="translate(-59.955 -109.755)"/>
      <path id="Path_161" data-name="Path 161" d="M-360.057,301.1c0-.843,0-1.686,0-2.528a1.207,1.207,0,0,1,1.147-1.357,1.223,1.223,0,0,1,1.2,1.376c.008,1.568,0,3.136,0,4.7a1.329,1.329,0,0,0,1.381,1.4,1.373,1.373,0,0,0,1.447-1.417c0-1.548,0-3.1,0-4.645,0-.856.449-1.4,1.149-1.417.72-.017,1.2.546,1.2,1.431,0,1.627.018,3.254-.005,4.88a3.654,3.654,0,0,1-3.515,3.508,3.668,3.668,0,0,1-3.92-2.827A21.065,21.065,0,0,1-360,301.1Z" transform="translate(-95.265 -185.908)"/>
      <path id="Path_162" data-name="Path 162" d="M-177.71,308.522a1.219,1.219,0,0,1-.92,1.235,1.048,1.048,0,0,1-1.265-.6c-.19-.546-.535-.578-.99-.552-.37.021-.743.013-1.115,0-.617-.017-1.193-.106-1.5.709-.193.52-.938.6-1.444.33a1.155,1.155,0,0,1-.529-1.461c.491-1.341,1.009-2.672,1.515-4.007q.52-1.372,1.039-2.744a1.319,1.319,0,0,1,1.268-.959,1.3,1.3,0,0,1,1.31.977q1.255,3.29,2.489,6.587A4.775,4.775,0,0,1-177.71,308.522Zm-3.92-3.85-.571,1.54h1.151Z" transform="translate(-242.482 -188.652)"/>
      <path id="Path_163" data-name="Path 163" d="M-407.68,299.533v1.314c.543,0,1.066-.008,1.589,0A1.194,1.194,0,0,1-404.8,302a1.2,1.2,0,0,1-1.31,1.2c-.507.009-1.014,0-1.564,0V304.6c.565,0,1.144,0,1.723,0,.855.007,1.39.466,1.382,1.177s-.554,1.167-1.4,1.174c-.9.008-1.8.01-2.7,0a1.239,1.239,0,0,1-1.392-1.427q-.008-3.5,0-7a1.242,1.242,0,0,1,1.406-1.415c.959-.011,1.919-.019,2.878.008a1.168,1.168,0,0,1,1.2,1.007,1.088,1.088,0,0,1-.642,1.206,1.79,1.79,0,0,1-.68.124c-.547.021-1.1.015-1.643.024C-407.58,299.47-407.614,299.5-407.68,299.533Z" transform="translate(-53.084 -185.799)"/>
      <path id="Path_164" data-name="Path 164" d="M-295.106,299.462c-.359,0-.63.012-.9,0a1.135,1.135,0,0,1-1.126-1.06,1.132,1.132,0,0,1,.992-1.247,10.951,10.951,0,0,1,1.406-.039c.9,0,1.8-.012,2.7,0a1.224,1.224,0,0,1,1.356,1.222c-.023.695-.535,1.117-1.37,1.128-.21,0-.421,0-.71,0v.686c0,1.8,0,3.609,0,5.413,0,.859-.467,1.4-1.172,1.39s-1.169-.554-1.173-1.407c-.008-1.785,0-3.57,0-5.354Z" transform="translate(-148.338 -185.813)"/>
      <path id="Path_165" data-name="Path 165" d="M-118.967,304.708c.537,0,.984-.013,1.43,0a1.15,1.15,0,0,1,1.168,1.085,1.123,1.123,0,0,1-1.021,1.224,24.829,24.829,0,0,1-2.93,0,1.058,1.058,0,0,1-.987-1.125q-.02-3.763,0-7.526a1.146,1.146,0,0,1,1.113-1.143,1.172,1.172,0,0,1,1.193,1,4.127,4.127,0,0,1,.031.7C-118.966,300.827-118.967,302.726-118.967,304.708Z" transform="translate(-296.634 -185.911)"/>
      <path id="Path_166" data-name="Path 166" d="M-318.623,100c-1.747-1.3-3.37-2.525-5-3.729a1.141,1.141,0,0,0-1.421-.03,1,1,0,0,0-.437,1.182,2.256,2.256,0,0,0,.7.882c1.394,1.134,2.812,2.237,4.218,3.356a3.682,3.682,0,0,1,.344.363,3.908,3.908,0,0,1-3.716.678,7.182,7.182,0,0,1-3.362-2.162,10.964,10.964,0,0,1-2.943-7.882c.008-.42.142-.563.557-.624a10.633,10.633,0,0,1,9.438,2.906,5.307,5.307,0,0,1,1.719,3.262A10.8,10.8,0,0,1-318.623,100Z" transform="translate(-120.42 -12.696)" fill="#62c4b4"/>
    </g>
  </g>
</svg>
