<svg xmlns="http://www.w3.org/2000/svg" width="93" height="93" viewBox="0 0 93 93">
  <g id="Icon_3" data-name="Icon 3" transform="translate(-818 -2386)">
    <rect id="Rectangle_49" data-name="Rectangle 49" width="93" height="93" rx="6" transform="translate(818 2386)" fill="#fedd00"/>
    <g id="Group_165" data-name="Group 165" transform="translate(-212.064 -2045.241)">
      <path id="Path_283" data-name="Path 283" d="M1195.763,4537.519h19.876v-7.645l-9.938-13h-9.174" transform="translate(-104.674 -43.341)" fill="#fff" stroke="#000" stroke-linecap="round" stroke-linejoin="round" stroke-width="2"/>
      <path id="Path_284" data-name="Path 284" d="M1195.709,4557.679h19.112v7.645h-20.258" transform="translate(-103.856 -71.146)" fill="#ffcf00" stroke="#000" stroke-linecap="round" stroke-linejoin="round" stroke-width="2"/>
      <path id="Path_285" data-name="Path 285" d="M1067.37,4484.479H1107.8v30.961h-40.552v-28.759Z" transform="translate(-17.097 -21.262)" fill="#ffcf00" stroke="#000" stroke-width="2"/>
      <path id="Path_286" data-name="Path 286" d="M1095.19,4484.479H1107.8v30.961h-40.552v-5.382" transform="translate(-17.097 -21.262)" fill="#ffcf00" stroke="#000" stroke-linecap="round" stroke-linejoin="round" stroke-width="2"/>
      <circle id="Ellipse_9" data-name="Ellipse 9" cx="5.964" cy="5.964" r="5.964" transform="translate(1055.912 4490.276)" fill="#040505" stroke="#000" stroke-width="2"/>
      <circle id="Ellipse_10" data-name="Ellipse 10" cx="5.964" cy="5.964" r="5.964" transform="translate(1094.9 4490.276)" fill="#040505" stroke="#000" stroke-width="2"/>
      <circle id="Ellipse_11" data-name="Ellipse 11" cx="14.907" cy="14.907" r="14.907" transform="translate(1042.545 4453.279)" fill="#ffcf00" stroke="#000" stroke-linecap="round" stroke-linejoin="round" stroke-width="2"/>
      <ellipse id="Ellipse_12" data-name="Ellipse 12" cx="5.351" cy="14.907" rx="5.351" ry="14.907" transform="translate(1052.101 4453.279)" fill="#ffcf00" stroke="#000" stroke-linecap="round" stroke-linejoin="round" stroke-width="2"/>
      <line id="Line_13" data-name="Line 13" x2="27.827" transform="translate(1043.539 4462.07)" fill="#ffcf00" stroke="#000" stroke-linecap="round" stroke-linejoin="round" stroke-width="2"/>
      <line id="Line_14" data-name="Line 14" x2="29.814" transform="translate(1042.163 4468.186)" fill="#ffcf00" stroke="#000" stroke-linecap="round" stroke-linejoin="round" stroke-width="2"/>
      <line id="Line_15" data-name="Line 15" x2="26.202" transform="translate(1044.229 4474.302)" fill="#ffcf00" stroke="#000" stroke-linecap="round" stroke-linejoin="round" stroke-width="2"/>
    </g>
  </g>
</svg>
