<svg xmlns="http://www.w3.org/2000/svg" width="93" height="93" viewBox="0 0 93 93">
  <g id="Icon-network" transform="translate(-175 -2764)">
    <path id="Path_138" data-name="Path 138" d="M6,0H87a6,6,0,0,1,6,6V87a6,6,0,0,1-6,6H6a6,6,0,0,1-6-6V6A6,6,0,0,1,6,0Z" transform="translate(175 2764)" fill="#fedd00"/>
    <g id="cbip3" transform="translate(184.733 2782.37)">
      <path id="Path_128" data-name="Path 128" d="M63.31,31.211a23.656,23.656,0,0,0-.337-3.909l-4.937-3.4L59.118,18a23.082,23.082,0,0,0-5.531-5.531l-5.894,1.081-3.4-4.937A22.734,22.734,0,0,0,40.38,8.28a23.655,23.655,0,0,0-3.909.337l-3.4,4.937-5.9-1.09a23.082,23.082,0,0,0-5.531,5.531l1.081,5.894-4.937,3.4A22.735,22.735,0,0,0,17.44,31.2a23.655,23.655,0,0,0,.337,3.909l4.937,3.4-1.081,5.894a23.082,23.082,0,0,0,5.531,5.531l5.894-1.081,3.4,4.937a22.735,22.735,0,0,0,3.909.337A23.655,23.655,0,0,0,44.28,53.8l3.4-4.937,5.894,1.081a23.082,23.082,0,0,0,5.531-5.531l-1.081-5.894,4.937-3.4A22.631,22.631,0,0,0,63.31,31.211Z" transform="translate(-3.311 -2.27)" fill="#fedd00" stroke="#000" stroke-linecap="round" stroke-linejoin="round" stroke-miterlimit="10" stroke-width="3"/>
      <path id="Path_129" data-name="Path 129" d="M61.98,62.63A23.511,23.511,0,0,0,77.864,35.56l4.042,6.364" transform="translate(-8.371 -5.37)" fill="none" stroke="#000" stroke-linecap="round" stroke-linejoin="round" stroke-miterlimit="10" stroke-width="3"/>
      <path id="Path_130" data-name="Path 130" d="M21.293,1.5A23.492,23.492,0,0,0,4.7,26.9L1.5,20.637" transform="translate(-1.5 -1.5)" fill="none" stroke="#000" stroke-linecap="round" stroke-linejoin="round" stroke-miterlimit="10" stroke-width="3"/>
      <path id="Path_131" data-name="Path 131" d="M42.148,42.125A9.148,9.148,0,1,0,33,32.978,9.148,9.148,0,0,0,42.148,42.125Z" transform="translate(-5.079 -4.037)" fill="#fff" stroke="#000" stroke-linecap="round" stroke-linejoin="round" stroke-miterlimit="10" stroke-width="3"/>
    </g>
  </g>
</svg>
