<svg xmlns="http://www.w3.org/2000/svg" width="20.379" height="38" viewBox="0 0 20.379 38">
  <g id="Location" transform="translate(170.354 -275.941)">
    <path id="Path_270" data-name="Path 270" d="M-160.142,303.525c-4.4-5.486-8.51-10.733-9.974-17.465-.943-4.335.954-7.6,5.1-9.188a13.207,13.207,0,0,1,8.407-.448c5.453,1.481,7.651,5.244,6.2,10.722-1.184,4.479-3.647,8.3-6.316,12C-157.739,300.554-158.856,301.884-160.142,303.525Zm.007-1.655c3.726-4.833,7.245-9.454,8.735-15.226,1.059-4.1-.223-7.031-3.691-8.544a11.921,11.921,0,0,0-8.495-.579c-4.744,1.447-6.524,4.348-5.294,9.142C-167.4,292.433-163.884,297.072-160.135,301.87Z" transform="translate(0)"/>
    <path id="Path_271" data-name="Path 271" d="M-155.679,364.352a36.681,36.681,0,0,1,6.044,2.072c2.815,1.541,2.75,4.449.1,6.235-3.191,2.149-9.079,2.121-12.251-.061-2.58-1.774-2.646-4.6.1-6.132A36.773,36.773,0,0,1-155.679,364.352Zm.139,1.3a36.713,36.713,0,0,0-5.446,1.873c-1.9,1-1.812,2.789-.051,4.041,2.689,1.914,8.207,1.9,10.865-.035,1.709-1.241,1.825-2.924,0-3.933A35.135,35.135,0,0,0-155.541,365.651Z" transform="translate(-4.516 -60.311)"/>
    <path id="Path_272" data-name="Path 272" d="M-157.783,304.131c-3.748-4.8-7.264-9.437-8.745-15.207-1.23-4.794.55-7.7,5.294-9.142a11.921,11.921,0,0,1,8.495.579c3.468,1.514,4.75,4.444,3.691,8.544C-150.538,294.677-154.056,299.3-157.783,304.131Zm-.047-19.666a3.373,3.373,0,0,0-3.456,3.524,3.518,3.518,0,0,0,3.545,3.509,3.713,3.713,0,0,0,3.531-3.6A3.554,3.554,0,0,0-157.83,284.465Z" transform="translate(-2.353 -2.261)" fill="#fedd00"/>
    <path id="Path_273" data-name="Path 273" d="M-152.645,368.439a35.14,35.14,0,0,1,5.366,1.946c1.827,1.008,1.71,2.691,0,3.933-2.658,1.931-8.176,1.949-10.865.035-1.76-1.253-1.847-3.045.051-4.042A36.717,36.717,0,0,1-152.645,368.439Zm-.079,5.777c.97-.749,2.249-1.261,2.3-1.872.1-1.281-1.276-1.358-2.237-1.368-1.015-.01-2.423.034-2.387,1.381C-155.034,372.929-153.711,373.466-152.724,374.216Z" transform="translate(-7.412 -63.099)" fill="#fff"/>
    <path id="Path_274" data-name="Path 274" d="M-145.771,295.646a3.554,3.554,0,0,1,3.62,3.437,3.713,3.713,0,0,1-3.531,3.6,3.518,3.518,0,0,1-3.545-3.509A3.373,3.373,0,0,1-145.771,295.646Z" transform="translate(-14.412 -13.442)"/>
    <path id="Path_275" data-name="Path 275" d="M-143.2,379.658c-.987-.749-2.31-1.287-2.326-1.859-.037-1.346,1.371-1.391,2.387-1.381.96.01,2.339.086,2.237,1.368C-140.948,378.4-142.226,378.909-143.2,379.658Z" transform="translate(-16.939 -68.542)"/>
  </g>
</svg>
