<svg xmlns="http://www.w3.org/2000/svg" xmlns:xlink="http://www.w3.org/1999/xlink" width="175" height="46" viewBox="0 0 175 46">
  <defs>
    <clipPath id="clip-path">
      <rect id="Rectangle_1" data-name="Rectangle 1" width="175" height="46" fill="#fff"/>
    </clipPath>
  </defs>
  <g id="logo" clip-path="url(#clip-path)">
    <path id="Path_1" data-name="Path 1" d="M24.958,46H9.137a1.415,1.415,0,0,1-1-.419,1.441,1.441,0,0,1-.416-1.016L7.737,29a1.428,1.428,0,0,1,1.424-1.431h0a1.428,1.428,0,0,1,1.42,1.435l-.019,14.126H21.53l-3.782-3.813a1.446,1.446,0,0,1,0-2.028l9.53-9.607a1.418,1.418,0,0,1,2.012,0,1.446,1.446,0,0,1,0,2.028L20.76,38.3l5.205,5.248a1.443,1.443,0,0,1,.308,1.563A1.422,1.422,0,0,1,24.958,46Z" fill="#fcdc00"/>
    <path id="Path_2" data-name="Path 2" d="M17.174,30a1.406,1.406,0,0,1-1-.419L7.633,20.975,2.428,26.223a1.415,1.415,0,0,1-1.55.31A1.432,1.432,0,0,1,0,25.211V9.262A1.439,1.439,0,0,1,.416,8.25a1.415,1.415,0,0,1,1-.419h0l15.435.019a1.433,1.433,0,0,1,0,2.866h0L2.843,10.7V21.751l3.782-3.813a1.413,1.413,0,0,1,2.008,0l9.541,9.619a1.446,1.446,0,0,1,0,2.028A1.4,1.4,0,0,1,17.174,30Z" fill="#fcdc00"/>
    <path id="Path_3" data-name="Path 3" d="M17.236,19a1.407,1.407,0,0,1-1-.419,1.446,1.446,0,0,1,0-2.028l8.787-8.859L19.81,2.447A1.443,1.443,0,0,1,19.5.884,1.421,1.421,0,0,1,20.814,0h15.82a1.415,1.415,0,0,1,1,.419,1.441,1.441,0,0,1,.416,1.016L38.035,17a1.428,1.428,0,0,1-1.424,1.431h0a1.428,1.428,0,0,1-1.42-1.435l.019-14.126H24.242l3.782,3.813a1.446,1.446,0,0,1,0,2.029L18.24,18.578A1.413,1.413,0,0,1,17.236,19Z" fill="#fcdc00"/>
    <path id="Path_4" data-name="Path 4" d="M44.16,38.22h0L28.724,38.2a1.433,1.433,0,0,1,0-2.866h0l14.012.019V24.3l-3.782,3.813a1.418,1.418,0,0,1-2.012,0l-9.5-9.58a1.445,1.445,0,0,1,0-2.028,1.417,1.417,0,0,1,2.012,0l8.5,8.568,5.205-5.248a1.407,1.407,0,0,1,1.55-.31,1.433,1.433,0,0,1,.877,1.323V36.785A1.431,1.431,0,0,1,44.16,38.22Z" fill="#fcdc00"/>
    <path id="Path_5" data-name="Path 5" d="M61.45,7.133A7.2,7.2,0,0,1,64.259,4.27a8.116,8.116,0,0,1,4.082-1.028,7.766,7.766,0,0,1,4.786,1.489,7.173,7.173,0,0,1,2.662,4.057H71.584A3.415,3.415,0,0,0,70.253,7.28a3.726,3.726,0,0,0-1.958-.52A3.643,3.643,0,0,0,65.432,8a4.822,4.822,0,0,0-1.1,3.316,4.829,4.829,0,0,0,1.1,3.316,3.642,3.642,0,0,0,2.862,1.241,3.735,3.735,0,0,0,1.958-.52,3.437,3.437,0,0,0,1.331-1.509h4.205a7.075,7.075,0,0,1-2.662,4.045,7.808,7.808,0,0,1-4.786,1.478,8.077,8.077,0,0,1-4.082-1.028,7.249,7.249,0,0,1-2.809-2.851,8.469,8.469,0,0,1-1.008-4.17A8.544,8.544,0,0,1,61.45,7.133Z" fill="#fff"/>
    <path id="Path_6" data-name="Path 6" d="M89.832,12.5a3.9,3.9,0,0,1,.827,2.447,3.9,3.9,0,0,1-1.377,3.146,5.762,5.762,0,0,1-3.836,1.16H78.132V3.425H85.2A5.765,5.765,0,0,1,88.947,4.53a3.675,3.675,0,0,1,1.354,3,3.646,3.646,0,0,1-.727,2.323,3.759,3.759,0,0,1-1.935,1.284A3.642,3.642,0,0,1,89.832,12.5ZM81.96,9.828h2.5a2.2,2.2,0,0,0,1.443-.419,1.508,1.508,0,0,0,.5-1.23,1.543,1.543,0,0,0-.5-1.241,2.154,2.154,0,0,0-1.443-.427h-2.5ZM86.265,15.7a1.569,1.569,0,0,0,.527-1.272,1.634,1.634,0,0,0-.546-1.307,2.241,2.241,0,0,0-1.508-.473H81.964v3.495h2.82A2.291,2.291,0,0,0,86.265,15.7Z" fill="#fff"/>
    <path id="Path_7" data-name="Path 7" d="M96.7,3.425V19.253H92.872V3.425Z" fill="#fff"/>
    <path id="Path_8" data-name="Path 8" d="M110.812,11.035a4.621,4.621,0,0,1-1.924,1.838,6.736,6.736,0,0,1-3.22.7H103.3v5.682H99.474V3.425h6.194a6.95,6.95,0,0,1,3.174.655,4.465,4.465,0,0,1,1.947,1.8,5.291,5.291,0,0,1,.65,2.637A5.207,5.207,0,0,1,110.812,11.035Zm-3.8-1.051a1.942,1.942,0,0,0,.538-1.466,1.942,1.942,0,0,0-.538-1.466,2.275,2.275,0,0,0-1.632-.52h-2.081V10.5h2.081A2.252,2.252,0,0,0,107.007,9.983Z" fill="#fff"/>
    <path id="Path_9" data-name="Path 9" d="M64.917,38.821h5.009V41.8H61.093V25.971h3.824Z" fill="#fff"/>
    <path id="Path_10" data-name="Path 10" d="M75.127,40.919a7.7,7.7,0,0,1-2.932-2.9,8.577,8.577,0,0,1,0-8.351,7.728,7.728,0,0,1,2.932-2.886,8.473,8.473,0,0,1,8.118,0,7.563,7.563,0,0,1,2.908,2.886,8.7,8.7,0,0,1-.011,8.351,7.645,7.645,0,0,1-2.909,2.9,8.449,8.449,0,0,1-8.106,0Zm7.068-3.743a4.813,4.813,0,0,0,1.131-3.336,4.8,4.8,0,0,0-1.131-3.347,3.857,3.857,0,0,0-3.009-1.253,3.908,3.908,0,0,0-3.032,1.241,4.794,4.794,0,0,0-1.131,3.359,4.8,4.8,0,0,0,1.131,3.347,3.884,3.884,0,0,0,3.032,1.253A3.845,3.845,0,0,0,82.195,37.176Z" fill="#fff"/>
    <path id="Path_11" data-name="Path 11" d="M99.762,30.974a2.871,2.871,0,0,0-1.22-1.206,3.947,3.947,0,0,0-1.866-.419,3.829,3.829,0,0,0-2.974,1.23,4.681,4.681,0,0,0-1.12,3.281,4.751,4.751,0,0,0,1.174,3.417,4.256,4.256,0,0,0,3.232,1.229,3.883,3.883,0,0,0,2.382-.721,4.059,4.059,0,0,0,1.419-2.075H95.938V32.871h8.318v3.584a7.628,7.628,0,0,1-4.024,4.689,7.922,7.922,0,0,1-3.532.768,8.272,8.272,0,0,1-4.147-1.028,7.249,7.249,0,0,1-2.839-2.851,9.06,9.06,0,0,1,0-8.351,7.249,7.249,0,0,1,2.828-2.862,8.259,8.259,0,0,1,4.136-1.028,7.973,7.973,0,0,1,4.751,1.377,6.5,6.5,0,0,1,2.562,3.809H99.762Z" fill="#fff"/>
    <path id="Path_12" data-name="Path 12" d="M110.208,25.971V41.8h-3.824V25.971Z" fill="#fff"/>
    <path id="Path_13" data-name="Path 13" d="M115.574,41.392a5.062,5.062,0,0,1-2.181-1.668,4.585,4.585,0,0,1-.862-2.661H116.6a1.985,1.985,0,0,0,.6,1.342,1.933,1.933,0,0,0,1.342.462,2.086,2.086,0,0,0,1.343-.4,1.33,1.33,0,0,0,.493-1.094,1.3,1.3,0,0,0-.393-.97,3.166,3.166,0,0,0-.962-.632,14.841,14.841,0,0,0-1.619-.562,17.363,17.363,0,0,1-2.482-.946,4.553,4.553,0,0,1-1.654-1.4,3.918,3.918,0,0,1-.693-2.413A4.16,4.16,0,0,1,114.17,27a6.491,6.491,0,0,1,4.136-1.253A6.561,6.561,0,0,1,122.488,27a4.5,4.5,0,0,1,1.7,3.483h-4.136a1.644,1.644,0,0,0-.558-1.206,1.953,1.953,0,0,0-1.32-.438,1.641,1.641,0,0,0-1.119.372,1.341,1.341,0,0,0-.423,1.07,1.324,1.324,0,0,0,.715,1.195,11.593,11.593,0,0,0,2.235.923,20.024,20.024,0,0,1,2.47.993,4.679,4.679,0,0,1,1.643,1.377,3.708,3.708,0,0,1,.693,2.323,4.592,4.592,0,0,1-.681,2.459,4.769,4.769,0,0,1-1.982,1.757,6.744,6.744,0,0,1-3.062.655A8.09,8.09,0,0,1,115.574,41.392Z" fill="#fff"/>
    <path id="Path_14" data-name="Path 14" d="M138.028,25.971v3.087h-4.159V41.8h-3.824V29.058h-4.159V25.971Z" fill="#fff"/>
    <path id="Path_15" data-name="Path 15" d="M143.775,25.971V41.8h-3.824V25.971Z" fill="#fff"/>
    <path id="Path_16" data-name="Path 16" d="M146.908,29.679a7.21,7.21,0,0,1,2.809-2.862,8.115,8.115,0,0,1,4.082-1.028,7.765,7.765,0,0,1,4.786,1.489,7.174,7.174,0,0,1,2.662,4.057h-4.2a3.411,3.411,0,0,0-1.331-1.509,3.724,3.724,0,0,0-1.958-.52,3.644,3.644,0,0,0-2.863,1.241,4.822,4.822,0,0,0-1.1,3.316,4.829,4.829,0,0,0,1.1,3.316,3.644,3.644,0,0,0,2.863,1.241,3.734,3.734,0,0,0,1.958-.52,3.436,3.436,0,0,0,1.331-1.509h4.2a7.075,7.075,0,0,1-2.662,4.045,7.807,7.807,0,0,1-4.786,1.478,8.075,8.075,0,0,1-4.082-1.028,7.256,7.256,0,0,1-2.809-2.851,8.472,8.472,0,0,1-1.008-4.169A8.636,8.636,0,0,1,146.908,29.679Z" fill="#fff"/>
    <path id="Path_17" data-name="Path 17" d="M166.187,41.392a5.065,5.065,0,0,1-2.182-1.668,4.577,4.577,0,0,1-.861-2.661h4.07a1.993,1.993,0,0,0,.6,1.342,1.936,1.936,0,0,0,1.343.462,2.089,2.089,0,0,0,1.343-.4A1.329,1.329,0,0,0,171,37.378a1.3,1.3,0,0,0-.392-.97,3.178,3.178,0,0,0-.962-.632,14.949,14.949,0,0,0-1.62-.562,17.364,17.364,0,0,1-2.482-.946,4.561,4.561,0,0,1-1.654-1.4,3.918,3.918,0,0,1-.692-2.413A4.158,4.158,0,0,1,164.783,27a6.49,6.49,0,0,1,4.135-1.253A6.559,6.559,0,0,1,173.1,27a4.5,4.5,0,0,1,1.7,3.483h-4.136a1.641,1.641,0,0,0-.558-1.206,1.952,1.952,0,0,0-1.319-.438,1.643,1.643,0,0,0-1.12.372,1.341,1.341,0,0,0-.423,1.07,1.324,1.324,0,0,0,.715,1.195,11.58,11.58,0,0,0,2.236.923,20.024,20.024,0,0,1,2.47.993,4.688,4.688,0,0,1,1.643,1.377A3.713,3.713,0,0,1,175,37.091a4.592,4.592,0,0,1-.681,2.459,4.772,4.772,0,0,1-1.981,1.757,6.751,6.751,0,0,1-3.063.655A8.1,8.1,0,0,1,166.187,41.392Z" fill="#fff"/>
  </g>
</svg>
