<svg xmlns="http://www.w3.org/2000/svg" width="80" height="80.008" viewBox="0 0 80 80.008">
  <g id="marketplace" transform="translate(669.127 -142.389)">
    <path id="Path_199" data-name="Path 199" d="M-623.535,273.535c.827,1.651,1.564,3.148,2.337,4.625.071.135.374.2.573.208.728.025,1.458,0,2.187.015.895.022,1.407.479,1.407,1.22s-.5,1.211-1.407,1.215c-3.225.014-6.451.007-9.676.007-3.814,0-7.628.008-11.443-.011a1.816,1.816,0,0,1-1.176-.28,1.48,1.48,0,0,1-.388-1.234,1.6,1.6,0,0,1,1.05-.871,9.819,9.819,0,0,1,2.263-.042.877.877,0,0,0,.966-.579c.648-1.385,1.354-2.743,2.119-4.274h-30.157c-2.853,0-4.246-1.38-4.246-4.213q0-23.171,0-46.342c0-3.308,1.854-5.16,5.155-5.164q4.418,0,8.835,0a3.749,3.749,0,0,1,.836.058,1.1,1.1,0,0,1,.909,1.155,1.086,1.086,0,0,1-.973,1.18,8.008,8.008,0,0,1-1.174.049c-2.861,0-5.721-.006-8.582,0-1.8.007-2.557.772-2.557,2.566q0,18.881,0,37.763c0,.245.025.491.04.781h75.061v-.939q0-18.713,0-37.427c0-2.033-.7-2.742-2.718-2.745-2.917,0-5.834,0-8.75,0a4.207,4.207,0,0,1-.918-.068,1,1,0,0,1-.886-1.141,2.289,2.289,0,0,1,.822-1.122c.193-.162.59-.108.894-.109q4.5-.01,9,0a4.633,4.633,0,0,1,5,4.984q.012,23.339,0,46.678c0,2.614-1.454,4.054-4.067,4.055q-14.556.005-29.111,0Zm31.953-9.618h-75.1c0,1.806,0,3.565,0,5.323,0,1.615.274,1.883,1.918,1.883h71.241c.252,0,.506.017.756-.007a1.137,1.137,0,0,0,1.173-1.179C-591.567,267.953-591.582,265.968-591.582,263.918Zm-32.262,14.428c-.785-1.57-1.518-3.067-2.295-4.542-.083-.157-.416-.253-.635-.256q-2.353-.032-4.706,0a.838.838,0,0,0-.635.257c-.776,1.475-1.508,2.973-2.292,4.541Z" transform="translate(0 -58.431)"/>
    <path id="Path_200" data-name="Path 200" d="M-586.713,153.262h24.892c-.185-.244-.316-.44-.471-.616q-3.315-3.756-6.636-7.508c-.2-.231-.417-.457-.606-.7a1.168,1.168,0,0,1,.1-1.721,1.13,1.13,0,0,1,1.711.14c1.525,1.686,3.024,3.395,4.531,5.1,1.432,1.618,2.842,3.258,4.308,4.844a1.75,1.75,0,0,0,1.13.49c1.931.05,3.865.008,5.8.029,1.121.012,1.783.918,1.24,1.76a1.8,1.8,0,0,1-1.227.657c-1.7.148-1.712.106-2.176,1.8q-2.153,7.833-4.3,15.668c-.625,2.282-1.818,3.2-4.175,3.2h-23.527c-2.359,0-3.582-.924-4.2-3.178-1.52-5.548-3.051-11.093-4.541-16.649-.171-.637-.42-.9-1.074-.821a10.881,10.881,0,0,1-1.427.009c-1.027-.018-1.561-.458-1.537-1.258.022-.764.544-1.187,1.521-1.191,2.213-.009,4.426-.035,6.638.016a1.666,1.666,0,0,0,1.524-.768c2.365-3.1,4.765-6.179,7.154-9.263.1-.133.2-.272.312-.4a1.222,1.222,0,0,1,1.721-.239,1.193,1.193,0,0,1,.168,1.728c-1.131,1.5-2.294,2.98-3.444,4.468Zm-5.785,2.553a1.334,1.334,0,0,0,0,.3q2.288,8.361,4.576,16.722a1.48,1.48,0,0,0,1.687,1.157q11.844-.017,23.689-.008c1.172,0,1.459-.23,1.77-1.365q2.173-7.912,4.342-15.826c.084-.308.135-.624.21-.978Z" transform="translate(-54.402)"/>
    <path id="Path_201" data-name="Path 201" d="M-639.513,312c-.495,0-.859.015-1.222,0a1.1,1.1,0,0,1-1.169-1.167,1.091,1.091,0,0,1,1.181-1.228c1.685-.031,3.371-.017,5.056-.017q6.785,0,13.569,0c.309,0,.619,0,.926.026a1.074,1.074,0,0,1,1.04,1.2,1.1,1.1,0,0,1-1.08,1.177c-.387.037-.779.007-1.3.007v1.026q0,5.9,0,11.8c0,2.768-1.444,4.2-4.217,4.2q-4.383,0-8.765,0a3.673,3.673,0,0,1-4.016-4.037q-.007-5.985,0-11.97Zm2.4.028v.731q0,6.071,0,12.142c0,1.277.382,1.663,1.652,1.665q4.426.008,8.852,0c1.29,0,1.637-.357,1.638-1.659q0-6.029,0-12.058c0-.268-.027-.537-.041-.782h-4.718c-.045.089-.068.113-.068.138-.011.674-.012,1.348-.031,2.022-.026.887-.492,1.422-1.213,1.414s-1.184-.543-1.2-1.434c-.011-.719,0-1.438,0-2.179Z" transform="translate(-21.088 -129.637)"/>
    <path id="Path_202" data-name="Path 202" d="M-511.859,313.144c1.773.12,1.929.235,2.162,1.861.43,3,.857,6,1.226,9.009a4.652,4.652,0,0,1-4.592,4.973c-1.627.053-3.259.063-4.886,0a4.729,4.729,0,0,1-4.561-5.47c.509-2.67.763-5.389,1.112-8.088.26-2.01.27-2.036,2.193-2.333.029-.458.031-.931.1-1.4a2.3,2.3,0,0,1,2.249-2.1c.812-.048,1.629-.044,2.442-.02a2.421,2.421,0,0,1,2.558,2.534C-511.844,312.437-511.859,312.768-511.859,313.144Zm-3.611,2.5c-.983,0-1.969-.034-2.948.026a.856.856,0,0,0-.6.55q-.574,3.874-1.055,7.761a2.147,2.147,0,0,0,2.208,2.557q2.358.068,4.719,0a2.146,2.146,0,0,0,2.207-2.559q-.474-3.887-1.055-7.761a.857.857,0,0,0-.607-.547C-513.557,315.6-514.515,315.639-515.47,315.639Zm1.1-2.484v-1.119h-2.28v1.119Z" transform="translate(-113.617 -129.616)"/>
    <path id="Path_203" data-name="Path 203" d="M-399.46,339.6c1.23,1.219,2.371,2.342,3.5,3.474.717.717.817,1.446.292,1.985-.552.566-1.237.486-1.976-.246-1.118-1.107-2.23-2.221-3.348-3.329-.035-.035-.1-.041-.224-.088-.627,1.037-1.272,2.079-1.89,3.137-.3.516-.652.933-1.307.889-.694-.046-.989-.533-1.213-1.121q-2.284-5.976-4.591-11.943c-.234-.606-.382-1.187.166-1.71a1.381,1.381,0,0,1,1.637-.127q5.924,2.3,11.861,4.561c.6.229,1.159.477,1.217,1.229s-.462,1.084-1.01,1.409C-397.354,338.316-398.357,338.93-399.46,339.6Zm-7.653-5.972,3.071,7.979a8.037,8.037,0,0,1,4.874-4.922Z" transform="translate(-200.599 -145.701)"/>
    <path id="Path_204" data-name="Path 204" d="M-389.976,303.818c.272.226.737.437.887.784a1.406,1.406,0,0,1-.088,1.214,19.438,19.438,0,0,1-2.177,2.2,1.054,1.054,0,0,1-1.517-.1,1,1,0,0,1-.228-1.427c.749-.861,1.592-1.641,2.417-2.434C-390.558,303.937-390.322,303.93-389.976,303.818Z" transform="translate(-213.818 -125.146)"/>
    <path id="Path_205" data-name="Path 205" d="M-432.08,349.023a5.46,5.46,0,0,1-.559.976c-.608.655-1.243,1.288-1.9,1.9a1.142,1.142,0,0,1-1.712-.009,1.09,1.09,0,0,1-.025-1.644,21.633,21.633,0,0,1,2.031-2,1.438,1.438,0,0,1,1.209-.2C-432.659,348.189-432.411,348.664-432.08,349.023Z" transform="translate(-180.236 -159.388)"/>
    <path id="Path_206" data-name="Path 206" d="M-431.762,307.759c-.208.26-.412.713-.757.886a1.293,1.293,0,0,1-1.152-.032,16.23,16.23,0,0,1-2.341-2.381,1.384,1.384,0,0,1,.181-1.318c.261-.283,1.072-.486,1.3-.3a31.24,31.24,0,0,1,2.605,2.578C-431.845,307.277-431.849,307.449-431.762,307.759Z" transform="translate(-180.642 -125.707)"/>
    <path id="Path_207" data-name="Path 207" d="M-583.152,423.041c0,2.056.016,4.047-.008,6.038a1.138,1.138,0,0,1-1.173,1.182c-.25.024-.5.007-.756.007h-71.23c-1.643,0-1.917-.269-1.918-1.888,0-1.764,0-3.527,0-5.338Zm-32.71,4.8a1.251,1.251,0,0,0,1.222-1.245,1.23,1.23,0,0,0-1.189-1.186,1.211,1.211,0,0,0-1.207,1.156A1.211,1.211,0,0,0-615.862,427.843Zm-9.767-.016a1.172,1.172,0,0,0,1.265-1.077,1.183,1.183,0,0,0-1.093-1.329,1.227,1.227,0,0,0-1.281,1.078A1.208,1.208,0,0,0-625.63,427.826Zm4.955.006a1.186,1.186,0,0,0,1.175-1.174,1.216,1.216,0,0,0-1.2-1.242,1.207,1.207,0,0,0-1.176,1.184A1.193,1.193,0,0,0-620.675,427.832Z" transform="translate(-8.436 -217.602)" fill="#fff"/>
    <path id="Path_208" data-name="Path 208" d="M-570.391,201.984h36.41c-.075.353-.127.67-.211.978q-2.175,7.914-4.358,15.826c-.313,1.135-.6,1.364-1.777,1.365q-11.888,0-23.776.008A1.485,1.485,0,0,1-565.8,219q-2.279-8.366-4.593-16.722A1.334,1.334,0,0,1-570.391,201.984Zm11.768,13.24c-.022-.107-.042-.246-.08-.38-.8-2.744-1.585-5.491-2.394-8.231-.254-.859-.848-1.24-1.54-1.052-.719.2-1.018.867-.762,1.768q.862,3.031,1.744,6.057c.226.78.429,1.569.7,2.334a1.065,1.065,0,0,0,1.343.726A1.168,1.168,0,0,0-558.623,215.224Zm17.054-8.405a1.2,1.2,0,0,0-.974-1.262,1.108,1.108,0,0,0-1.386.807q-1.287,4.309-2.5,8.639a1.115,1.115,0,0,0,.844,1.438,1.14,1.14,0,0,0,1.442-.707,2.945,2.945,0,0,0,.164-.477q1.129-3.918,2.255-7.836C-541.668,207.206-541.615,206.99-541.569,206.819Zm-12.185,4.113c0,1.374-.008,2.749,0,4.123.007.894.456,1.427,1.178,1.439s1.214-.52,1.217-1.4q.016-4.039,0-8.078c0-.882-.469-1.433-1.18-1.446-.738-.014-1.212.555-1.218,1.491C-553.76,208.351-553.754,209.641-553.754,210.931Z" transform="translate(-76.576 -46.207)" fill="#fff"/>
    <path id="Path_209" data-name="Path 209" d="M-620.617,320.438h4.871c0,.741-.009,1.46,0,2.179.014.891.47,1.426,1.2,1.434s1.188-.527,1.213-1.414c.019-.674.02-1.348.032-2.022,0-.025.023-.049.068-.138h4.718c.013.246.04.514.041.782q0,6.029,0,12.058c0,1.3-.347,1.656-1.638,1.659q-4.426.008-8.852,0c-1.27,0-1.651-.388-1.652-1.665q-.005-6.071,0-12.142Z" transform="translate(-37.58 -138.045)" fill="#fff"/>
    <path id="Path_210" data-name="Path 210" d="M-506.931,336.523c.955,0,1.913-.035,2.864.026a.857.857,0,0,1,.607.547q.575,3.873,1.055,7.761a2.146,2.146,0,0,1-2.207,2.559q-2.358.07-4.719,0a2.147,2.147,0,0,1-2.208-2.557q.476-3.887,1.055-7.761a.856.856,0,0,1,.6-.55C-508.9,336.489-507.914,336.523-506.931,336.523Z" transform="translate(-122.157 -150.502)" fill="#fff"/>
    <path id="Path_211" data-name="Path 211" d="M-493.965,321.685h-2.28v-1.119h2.28Z" transform="translate(-134.022 -138.126)" fill="#fff"/>
    <path id="Path_212" data-name="Path 212" d="M-395.733,345.017l7.946,3.057A8.037,8.037,0,0,0-392.662,353Z" transform="translate(-211.979 -157.09)" fill="#fff"/>
    <path id="Path_213" data-name="Path 213" d="M-473.749,436a1.213,1.213,0,0,1-1.176-1.274,1.213,1.213,0,0,1,1.21-1.156,1.231,1.231,0,0,1,1.192,1.186A1.253,1.253,0,0,1-473.749,436Z" transform="translate(-150.549 -225.755)"/>
    <path id="Path_214" data-name="Path 214" d="M-517,436a1.209,1.209,0,0,1-1.112-1.328,1.229,1.229,0,0,1,1.284-1.078,1.183,1.183,0,0,1,1.1,1.329A1.174,1.174,0,0,1-517,436Z" transform="translate(-117.063 -225.771)"/>
    <path id="Path_215" data-name="Path 215" d="M-495.269,436a1.194,1.194,0,0,1-1.208-1.232,1.209,1.209,0,0,1,1.178-1.184,1.217,1.217,0,0,1,1.207,1.242A1.188,1.188,0,0,1-495.269,436Z" transform="translate(-133.842 -225.769)"/>
    <path id="Path_216" data-name="Path 216" d="M-534.864,227.362a1.168,1.168,0,0,1-.988,1.222,1.065,1.065,0,0,1-1.343-.726c-.271-.765-.474-1.554-.7-2.334q-.876-3.028-1.744-6.057c-.256-.9.043-1.572.761-1.768.692-.189,1.286.192,1.54,1.052.809,2.74,1.6,5.487,2.394,8.231C-534.906,227.115-534.886,227.254-534.864,227.362Z" transform="translate(-100.313 -58.35)"/>
    <path id="Path_217" data-name="Path 217" d="M-459.343,218.994c-.046.171-.1.388-.161.6q-1.126,3.918-2.255,7.836a2.951,2.951,0,0,1-.164.477,1.14,1.14,0,0,1-1.442.707,1.115,1.115,0,0,1-.844-1.438q1.211-4.331,2.5-8.639a1.108,1.108,0,0,1,1.386-.807A1.2,1.2,0,0,1-459.343,218.994Z" transform="translate(-158.821 -58.388)"/>
    <path id="Path_218" data-name="Path 218" d="M-496.528,223.26c0-1.29-.007-2.581,0-3.871.006-.936.48-1.5,1.218-1.491.711.013,1.177.563,1.18,1.446q.012,4.039,0,8.078c0,.88-.488,1.412-1.217,1.4s-1.171-.544-1.178-1.439C-496.535,226.009-496.528,224.634-496.528,223.26Z" transform="translate(-133.801 -58.541)"/>
  </g>
</svg>
