<svg xmlns="http://www.w3.org/2000/svg" width="41.039" height="50" viewBox="0 0 41.039 50">
  <g id="paperwork" transform="translate(651.753 -65.74)">
    <path id="Path_251" data-name="Path 251" d="M-649.288,115.74a9.744,9.744,0,0,1-1.552-.863,2.571,2.571,0,0,1-.886-1.991c-.006-.179,0-.358,0-.537,0-13.1.024-26.2-.024-39.294a3.119,3.119,0,0,1,3.438-3.409c.143.013.288,0,.493,0,0-.35-.005-.67,0-.99a2.91,2.91,0,0,1,2.927-2.912q11.642-.014,23.284.012a1.485,1.485,0,0,1,.944.39q4.789,4.737,9.524,9.528a1.614,1.614,0,0,1,.41,1.032q.032,16.035.016,32.07a2.93,2.93,0,0,1-3.035,3.055c-.273,0-.546,0-.87,0,0,.313,0,.584,0,.856a2.917,2.917,0,0,1-2.267,2.968,1.147,1.147,0,0,0-.174.082Zm1.465-44.089c-1.351-.173-1.973-.022-1.97,1.584q.044,19.579.017,39.157c0,1.11.281,1.395,1.375,1.395h30.466a3.279,3.279,0,0,0,.487-.011.922.922,0,0,0,.849-.814,8.366,8.366,0,0,0,.01-1.127h-27.974a2.967,2.967,0,0,1-3.261-3.27q0-11.449,0-22.9c0-.9.323-1.355.96-1.367.653-.011.993.461.993,1.382q0,11.425,0,22.85c0,1.045.3,1.35,1.323,1.35h30.564c1.005,0,1.315-.308,1.315-1.309q0-15.282,0-30.564v-.548h-.593q-3.027,0-6.054,0a2.935,2.935,0,0,1-3.117-3.119q0-3.051,0-6.1v-.51a1.922,1.922,0,0,0-.207-.03q-11.083,0-22.166,0a.975.975,0,0,0-1.061,1.069c-.01.911,0,1.823,0,2.734,0,1.627.007,3.255,0,4.882a.969.969,0,0,1-1.336,1,.99.99,0,0,1-.615-1.012C-647.82,74.8-647.823,73.241-647.823,71.651Zm27.343-2.483c0,1.77,0,3.488,0,5.207a1,1,0,0,0,1.146,1.13q2.436.007,4.873,0a1.739,1.739,0,0,0,.275-.04Z" transform="translate(0 0)"/>
    <path id="Path_252" data-name="Path 252" d="M-412.042,92.019l6.3,6.3a1.735,1.735,0,0,1-.275.04q-2.436,0-4.873,0a1,1,0,0,1-1.146-1.13C-412.045,95.508-412.042,93.789-412.042,92.019Z" transform="translate(-208.438 -22.851)" fill="#fff"/>
    <path id="Path_253" data-name="Path 253" d="M-567.9,140.572q3.828,0,7.656,0a1.01,1.01,0,0,1,1.112.809.982.982,0,0,1-.83,1.128,3.325,3.325,0,0,1-.487.014h-14.922c-.13,0-.261.006-.39-.005a.98.98,0,0,1-.929-.952.959.959,0,0,1,.938-.986c.714-.025,1.43-.009,2.146-.009Z" transform="translate(-65.274 -65.065)"/>
    <path id="Path_254" data-name="Path 254" d="M-567.748,215.344c-2.506,0-5.013,0-7.519-.006a1.261,1.261,0,0,1-.784-.158,1.563,1.563,0,0,1-.455-.893.793.793,0,0,1,.638-.821,2.4,2.4,0,0,1,.674-.072q7.446-.006,14.892,0c.1,0,.2,0,.293,0a1,1,0,0,1,1.047.994.969.969,0,0,1-1.072.953C-562.605,215.348-565.177,215.344-567.748,215.344Z" transform="translate(-65.427 -128.388)"/>
    <path id="Path_255" data-name="Path 255" d="M-568.976,324.637c-2.178,0-4.356,0-6.533,0a1.038,1.038,0,0,1-1.084-.576.944.944,0,0,1,.612-1.316,2.4,2.4,0,0,1,.626-.061q6.387,0,12.774,0a2.823,2.823,0,0,1,.485.026.969.969,0,0,1,.835.985.939.939,0,0,1-.938.93c-.6.024-1.2.01-1.8.011Z" transform="translate(-65.276 -223.424)"/>
    <path id="Path_256" data-name="Path 256" d="M-569.4,359.171q3.048,0,6.1,0c.76,0,1.185.363,1.175.991-.009.606-.429.959-1.16.96q-6.12,0-12.24,0c-.711,0-1.155-.378-1.161-.968s.441-.981,1.145-.982Q-572.468,359.167-569.4,359.171Z" transform="translate(-65.275 -255.15)"/>
    <path id="Path_257" data-name="Path 257" d="M-571.831,106.049c-1.237,0-2.474,0-3.711,0-.717,0-1.152-.384-1.144-.979a1,1,0,0,1,1.119-.969q3.759-.012,7.519,0a1,1,0,0,1,1.12.968c.008.593-.429.977-1.143.98C-569.324,106.053-570.577,106.049-571.831,106.049Z" transform="translate(-65.274 -33.35)"/>
    <path id="Path_258" data-name="Path 258" d="M-571.764,249.884c1.218,0,2.436,0,3.654,0,.737,0,1.193.39,1.181.994-.012.587-.457.956-1.171.957q-3.7,0-7.406,0c-.737,0-1.193-.391-1.181-1,.012-.587.456-.954,1.171-.955C-574.265,249.882-573.015,249.884-571.764,249.884Z" transform="translate(-65.273 -160.12)"/>
    <path id="Path_259" data-name="Path 259" d="M-571.359,286.331c1.237,0,2.474,0,3.711,0,.721,0,1.155.377,1.151.971s-.451.976-1.161.978c-2.49.006-4.98,0-7.47,0-.436,0-.859-.12-1-.55a1.208,1.208,0,0,1,.064-.945,1.288,1.288,0,0,1,.895-.436C-573.9,286.3-572.628,286.331-571.359,286.331Z" transform="translate(-65.705 -191.806)"/>
    <path id="Path_260" data-name="Path 260" d="M-620.629,174.313a.984.984,0,0,1,.976.945.985.985,0,0,1-.969,1,.983.983,0,0,1-.976-.994A.983.983,0,0,1-620.629,174.313Z" transform="translate(-26.221 -94.409)"/>
  </g>
</svg>
