<svg xmlns="http://www.w3.org/2000/svg" width="52.441" height="53.731" viewBox="0 0 52.441 53.731">
  <g id="Plane" transform="translate(-454.157 -3861.842)">
    <rect id="Rectangle_78" data-name="Rectangle 78" width="24.383" height="18.077" transform="translate(481.216 3896.496)" fill="#ffcf00" stroke="#040505" stroke-linecap="round" stroke-linejoin="round" stroke-width="2"/>
    <path id="Path_279" data-name="Path 279" d="M556.429,3960.078l.233,5.465,2.865-1.682,2.865,1.682v-5.465Z" transform="translate(-65.794 -63.162)" fill="#fff" stroke="#040505" stroke-linecap="round" stroke-linejoin="round" stroke-width="2"/>
    <path id="Path_280" data-name="Path 280" d="M495.694,3863.827a3.294,3.294,0,0,1,.182,4.753l-24.565,26.526,2.079,7.655-3.428,3.7-5.118-9.323-9.688-4.388,3.428-3.7,7.792,1.486,24.565-26.526A3.294,3.294,0,0,1,495.694,3863.827Z" transform="translate(0)" fill="#ffcf00" stroke="#040505" stroke-linecap="round" stroke-linejoin="round" stroke-width="2"/>
    <path id="Path_281" data-name="Path 281" d="M482.254,3890.462l-16.134-12.276,7.7-.891,14.532,6.582" transform="translate(-7.122 -9.381)" fill="#ffcf00" stroke="#040505" stroke-linecap="round" stroke-linejoin="round" stroke-width="2"/>
    <path id="Path_282" data-name="Path 282" d="M538.324,3919.994l-5.964-10.865-6.1,6.585,3.809,4.28" transform="translate(-46.195 -30.062)" fill="#ffcf00" stroke="#040505" stroke-linecap="round" stroke-linejoin="round" stroke-width="2"/>
  </g>
</svg>
