<svg xmlns="http://www.w3.org/2000/svg" width="80" height="81.46" viewBox="0 0 80 81.46">
  <g id="track" transform="translate(548.536 -120)">
    <path id="Path_219" data-name="Path 219" d="M-493.9,120a3.214,3.214,0,0,1,2.237,3.506c-.069,2.65-.016,5.3-.021,7.954a2.7,2.7,0,0,1-.067.786,1.1,1.1,0,0,1-1.269.842,1.079,1.079,0,0,1-1.035-1.109c-.032-.707-.007-1.417-.007-2.171h-43.89v.9q0,22.631,0,45.262c0,1.149,0,1.15,1.146,1.15h7.327c.959-2.865,2.825-4.573,5.923-4.451,2.807.111,4.479,1.779,5.347,4.407h18.214c-.121-.257-.218-.482-.329-.7-1.1-2.143-2.223-4.276-3.294-6.435a1.1,1.1,0,0,0-1.164-.684q-13.445.028-26.89.01a4.9,4.9,0,0,1-1.1-.085,1.065,1.065,0,0,1-.873-1.167,1.09,1.09,0,0,1,1.04-1.109,7.639,7.639,0,0,1,.874-.022h26.437l-.974-2.805h-25.584c-1.219,0-1.8-.38-1.807-1.181s.581-1.205,1.785-1.205h25.251c.057-.9.109-1.726.166-2.629a11.025,11.025,0,0,1-5.507-.622,10.162,10.162,0,0,1-5.887-6.1c-.176-.478-.378-.68-.894-.648-.687.043-1.378.024-2.068.006-.83-.021-1.307-.462-1.307-1.175a1.192,1.192,0,0,1,1.3-1.2c.739-.028,1.48-.006,2.276-.006.088-.8.124-1.562.261-2.3a9.955,9.955,0,0,1,4.439-6.7,1.046,1.046,0,0,0,.546-1.019c-.032-1.427-.012-2.856-.012-4.349h-4.93c0,1.445,0,2.87,0,4.295,0,1.559-.592,2.15-2.168,2.161-1.273.009-2.546.011-3.818,0-1.515-.014-2.122-.628-2.126-2.132,0-1.427,0-2.853,0-4.333h-4.866v14.373c1.369,0,2.738-.005,4.106,0a3.576,3.576,0,0,1,.942.092,1.063,1.063,0,0,1,.813,1.206,1.012,1.012,0,0,1-1,1.049c-1.881.032-3.767.063-5.645-.028-1.034-.05-1.664-1.016-1.667-2.263q-.01-5.687,0-11.375c0-1.087-.012-2.175,0-3.261a2.031,2.031,0,0,1,2.155-2.226q9.228-.031,18.456,0a2.015,2.015,0,0,1,2.129,2.242c.011,1.375,0,2.751,0,4.141a10.5,10.5,0,0,1,13.109,9.754l3.745-.721v-1.283c0-2.97,0-5.939,0-8.909,0-.922.472-1.439,1.238-1.406.714.031,1.141.546,1.143,1.436q.011,4.733,0,9.466v.889a13.112,13.112,0,0,1,7.508,3.78,13,13,0,0,1,2.539,14.7c-.584,1.246-1.234,2.462-1.874,3.681a1.193,1.193,0,0,1-1.695.678,1.219,1.219,0,0,1-.408-1.788c.592-1.185,1.236-2.343,1.8-3.542a10.684,10.684,0,0,0-9.784-15.235,10.631,10.631,0,0,0-9.6,15.074c3.029,6.3,6.361,12.449,9.561,18.663a1.826,1.826,0,0,0,.183.229c.325-.618.635-1.2.937-1.781,1.383-2.683,2.757-5.371,4.15-8.05.525-1.009,1.677-1.182,2.117-.287a1.847,1.847,0,0,1-.044,1.4c-.676,1.465-1.455,2.883-2.193,4.32-.119.232-.227.471-.36.747l11.211,10.393A5.622,5.622,0,0,1-471.1,191a5.379,5.379,0,0,1,2.467,5.711,5.523,5.523,0,0,1-4.142,4.563c-.2.061-.4.127-.6.191h-1.75a.972.972,0,0,0-.206-.112c-3.86-1.022-5.564-4.362-4.059-8.041.19-.466-.051-.618-.3-.846q-4.167-3.867-8.335-7.732c-.637-.591-1.282-1.174-1.975-1.808-.511.984-1.008,1.885-1.452,2.811a2.187,2.187,0,0,1-2.056,1.484,2.175,2.175,0,0,1-1.994-1.455c-.464-.959-.977-1.895-1.5-2.9-1.95,1.807-3.8,3.546-5.689,5.252a1.1,1.1,0,0,0-.391,1.335,5.352,5.352,0,0,1-1.892,5.978,5.409,5.409,0,0,1-6.181.64c-2.055-1.013-3.543-3.291-3.016-5.463.449-1.851-.306-2.759-1.538-3.694-.315-.239-.588-.535-.879-.8l-3.6-3.333a5.859,5.859,0,0,1-6.964.255,1.48,1.48,0,0,0-.216.136q-5.075,4.7-10.156,9.394c-.345.317-.246.552-.1.889a5.693,5.693,0,0,1-3.592,7.77c-.25.076-.5.161-.746.242h-1.75c-.2-.064-.4-.129-.6-.191a5.53,5.53,0,0,1-4.143-4.559,5.384,5.384,0,0,1,2.527-5.751,5.62,5.62,0,0,1,6.471.147l10.636-9.856-.679-1.746c-2.581,0-5.124,0-7.667,0a4.341,4.341,0,0,1-1.023-.088c-1.423-.351-2.16-1.452-2.16-3.189q0-26.353-.019-52.7A3.291,3.291,0,0,1-538.132,120Zm-.168,7.325c0-1.284,0-2.523,0-3.761,0-1.176,0-1.177-1.194-1.177h-41.509a1.683,1.683,0,0,0-.629.02c-.207.091-.513.3-.517.461-.04,1.475-.023,2.951-.023,4.457Zm-14.107,29.464c.4-.03.793-.055,1.188-.091a1.888,1.888,0,0,0,1.766-1.282,10.365,10.365,0,0,1,3.881-4.732,2.23,2.23,0,0,0,1.041-2.47c-.022-.184-.061-.366-.09-.549a7.9,7.9,0,0,0-8.606-6.65,7.9,7.9,0,0,0-7.052,8.354A7.889,7.889,0,0,0-508.173,156.789Zm3.5,29.935c2.011-1.861,3.98-3.673,5.932-5.5.251-.235.736-.38.445-.945a1.138,1.138,0,0,0-1.168-.793c-5.992.038-11.984.022-17.976.022h-.733c-.517,1.4-.515,1.4.479,2.307.587.537,1.164,1.084,1.748,1.624q1.775,1.64,3.562,3.287A5.89,5.89,0,0,1-504.677,186.724Zm-19.157-11.7a3.3,3.3,0,0,0-3.319,3.337,3.342,3.342,0,0,0,3.291,3.306,3.372,3.372,0,0,0,3.371-3.318A3.333,3.333,0,0,0-523.834,175.026Zm15.263,19.291a3.331,3.331,0,0,0,3.367-3.3,3.362,3.362,0,0,0-3.34-3.347,3.365,3.365,0,0,0-3.325,3.281A3.325,3.325,0,0,0-508.57,194.317Zm-30.945,1.394a3.332,3.332,0,0,0-3.365-3.3,3.33,3.33,0,0,0-3.261,3.327,3.314,3.314,0,0,0,3.326,3.337A3.314,3.314,0,0,0-539.516,195.711Zm61.958-.007a3.315,3.315,0,0,0,3.293,3.368,3.315,3.315,0,0,0,3.333-3.33,3.333,3.333,0,0,0-3.255-3.334A3.331,3.331,0,0,0-477.557,195.7ZM-523.9,134.931v4.047h3.226v-4.047Z"/>
    <path id="Path_220" data-name="Path 220" d="M-311.536,285.259a8.369,8.369,0,0,1-8.28,8.33,8.362,8.362,0,0,1-8.345-8.34,8.355,8.355,0,0,1,8.316-8.29A8.367,8.367,0,0,1-311.536,285.259Zm-14.238.027a5.962,5.962,0,0,0,5.936,5.916,5.977,5.977,0,0,0,5.916-5.942,5.975,5.975,0,0,0-5.942-5.916A5.962,5.962,0,0,0-325.774,285.286Z" transform="translate(-173.626 -123.662)"/>
    <path id="Path_221" data-name="Path 221" d="M-470.93,292.172q2.78,0,5.559,0a6.011,6.011,0,0,1,.714.022,1.094,1.094,0,0,1,1.075,1.152,1.1,1.1,0,0,1-1.051,1.176,6.69,6.69,0,0,1-.951.034q-5.44,0-10.88,0a5.387,5.387,0,0,1-.87-.042,1.1,1.1,0,0,1-1-1.143,1.1,1.1,0,0,1,1.056-1.174,5.475,5.475,0,0,1,.713-.024Q-473.749,292.171-470.93,292.172Z" transform="translate(-55.306 -135.648)"/>
    <path id="Path_222" data-name="Path 222" d="M-454.719,136.112h-43.873c0-1.506-.017-2.982.023-4.457,0-.164.31-.371.517-.461a1.683,1.683,0,0,1,.629-.02h41.509c1.193,0,1.194,0,1.194,1.177C-454.718,133.589-454.719,134.828-454.719,136.112Z" transform="translate(-39.346 -8.787)" fill="#fff"/>
    <path id="Path_223" data-name="Path 223" d="M-387.545,234.7a7.889,7.889,0,0,1-7.873-7.419,7.9,7.9,0,0,1,7.052-8.354,7.9,7.9,0,0,1,8.606,6.65c.029.183.068.365.09.549a2.23,2.23,0,0,1-1.041,2.47,10.366,10.366,0,0,0-3.881,4.732,1.888,1.888,0,0,1-1.766,1.282C-386.752,234.647-387.149,234.671-387.545,234.7Zm1.2-9.105c0-1.494.013-2.913,0-4.332-.011-.857-.494-1.387-1.2-1.388s-1.171.525-1.176,1.392q-.016,2.657,0,5.315c.007.979.426,1.39,1.407,1.4,1.322.01,2.645.006,3.967,0,.985,0,1.522-.446,1.5-1.222-.019-.74-.543-1.154-1.491-1.161C-384.313,225.591-385.286,225.6-386.344,225.6Z" transform="translate(-120.628 -77.912)" fill="#fff"/>
    <path id="Path_224" data-name="Path 224" d="M-444.416,379.39a3.334,3.334,0,0,1,3.343,3.326,3.372,3.372,0,0,1-3.371,3.318,3.342,3.342,0,0,1-3.291-3.306A3.3,3.3,0,0,1-444.416,379.39Z" transform="translate(-79.417 -204.364)" fill="#fff"/>
    <path id="Path_225" data-name="Path 225" d="M-372.388,445.632a3.325,3.325,0,0,1-3.3-3.368,3.365,3.365,0,0,1,3.325-3.281,3.362,3.362,0,0,1,3.34,3.347A3.331,3.331,0,0,1-372.388,445.632Z" transform="translate(-136.182 -251.314)" fill="#fff"/>
    <path id="Path_226" data-name="Path 226" d="M-530.624,464.627a3.314,3.314,0,0,1-3.3,3.361,3.314,3.314,0,0,1-3.325-3.337,3.33,3.33,0,0,1,3.261-3.327A3.332,3.332,0,0,1-530.624,464.627Z" transform="translate(-8.891 -268.917)" fill="#fff"/>
    <path id="Path_227" data-name="Path 227" d="M-213.946,464.62a3.331,3.331,0,0,1,3.371-3.3,3.333,3.333,0,0,1,3.255,3.334,3.315,3.315,0,0,1-3.334,3.33A3.315,3.315,0,0,1-213.946,464.62Z" transform="translate(-263.612 -268.917)" fill="#fff"/>
    <path id="Path_228" data-name="Path 228" d="M-432.419,190.386h3.226v4.047h-3.226Z" transform="translate(-91.484 -55.455)" fill="#fff"/>
    <path id="Path_229" data-name="Path 229" d="M-361.483,229.257c1.059,0,2.031-.006,3,0,.948.007,1.472.421,1.491,1.161.02.776-.517,1.219-1.5,1.222-1.322,0-2.644.008-3.966,0-.981-.007-1.4-.419-1.407-1.4q-.018-2.657,0-5.315c.005-.866.466-1.392,1.176-1.392s1.191.531,1.2,1.388C-361.47,226.344-361.483,227.763-361.483,229.257Z" transform="translate(-145.489 -81.573)"/>
    <path id="Path_230" data-name="Path 230" d="M-310.778,298.962a4.633,4.633,0,0,1,4.57-4.646,4.673,4.673,0,0,1,4.695,4.62,4.694,4.694,0,0,1-4.668,4.654A4.648,4.648,0,0,1-310.778,298.962Zm4.639-2.25a2.226,2.226,0,0,0-2.244,2.2,2.248,2.248,0,0,0,2.173,2.281,2.293,2.293,0,0,0,2.306-2.249A2.275,2.275,0,0,0-306.139,296.712Z" transform="translate(-187.321 -137.337)"/>
  </g>
</svg>
